<svg fill="none" height="1117" viewBox="0 0 1564 1117" width="1564" xmlns="http://www.w3.org/2000/svg">
  <line stroke="#FCFDFE" stroke-linecap="round" stroke-linejoin="round" stroke-width="35" x1="322.788" x2="458.401" y1="725.063" y2="589.45"/>
  <line stroke="#FCFDFE" stroke-linecap="round" stroke-linejoin="round" stroke-width="35" x1="554.684" x2="690.296" y1="678.465" y2="542.852"/>
  <line stroke="#FCFDFE" stroke-linecap="round" stroke-linejoin="round" stroke-width="35" x1="223.404" x2="359.017" y1="537.579" y2="401.967"/>
  <line stroke="#FCFDFE" stroke-linecap="round" stroke-linejoin="round" stroke-width="35" x1="439.828" x2="575.441" y1="695.21" y2="559.597"/>
  <line stroke="#FCFDFE" stroke-linecap="round" stroke-linejoin="round" stroke-width="35" x1="108.549" x2="244.161" y1="554.326" y2="418.713"/>
  <line stroke="#FCFDFE" stroke-linecap="round" stroke-linejoin="round" stroke-width="35" x1="671.725" x2="807.337" y1="648.613" y2="513"/>
  <line stroke="#FCFDFE" stroke-linecap="round" stroke-linejoin="round" stroke-width="35" x1="340.444" x2="476.057" y1="507.727" y2="372.115"/>
  <line stroke="#FCFDFE" stroke-linecap="round" stroke-linejoin="round" stroke-width="35" x1="515.732" x2="651.345" y1="534.85" y2="399.237"/>
  <line stroke="#FCFDFE" stroke-linecap="round" stroke-linejoin="round" stroke-width="35" x1="184.451" x2="320.064" y1="393.963" y2="258.35"/>
  <line stroke="#FCFDFE" stroke-linecap="round" stroke-linejoin="round" stroke-width="35" x1="670.813" x2="806.426" y1="753.457" y2="617.845"/>
  <line stroke="#FCFDFE" stroke-linecap="round" stroke-linejoin="round" stroke-width="35" x1="339.534" x2="475.147" y1="612.571" y2="476.958"/>
  <line stroke="#FCFDFE" stroke-linecap="round" stroke-linejoin="round" stroke-width="35" x1="747.627" x2="883.24" y1="488.252" y2="352.64"/>
  <line stroke="#FCFDFE" stroke-linecap="round" stroke-linejoin="round" stroke-width="35" x1="416.348" x2="551.96" y1="347.366" y2="211.753"/>
  <line stroke="#FCFDFE" stroke-linecap="round" stroke-linejoin="round" stroke-width="35" x1="902.71" x2="1038.32" y1="706.86" y2="571.247"/>
  <line stroke="#FCFDFE" stroke-linecap="round" stroke-linejoin="round" stroke-width="35" x1="660.399" x2="854.976" y1="949.171" y2="754.594"/>
  <line stroke="#FCFDFE" stroke-linecap="round" stroke-linejoin="round" stroke-width="35" x1="1094.71" x2="1431.46" y1="514.863" y2="178.106"/>
  <line stroke="#FCFDFE" stroke-linecap="round" stroke-linejoin="round" stroke-width="35" x1="705.762" x2="841.374" y1="348.095" y2="212.482"/>
  <line stroke="#FCFDFE" stroke-linecap="round" stroke-linejoin="round" stroke-width="35" x1="374.482" x2="510.095" y1="207.21" y2="71.5973"/>
  <line stroke="#FCFDFE" stroke-linecap="round" stroke-linejoin="round" stroke-width="35" x1="860.846" x2="996.458" y1="566.703" y2="431.09"/>
  <line stroke="#FCFDFE" stroke-linecap="round" stroke-linejoin="round" stroke-width="35" x1="529.565" x2="665.178" y1="425.818" y2="290.205"/>
  <line stroke="#FCFDFE" stroke-linecap="round" stroke-linejoin="round" stroke-width="35" x1="937.658" x2="1073.27" y1="301.497" y2="165.884"/>
  <line stroke="#FCFDFE" stroke-linecap="round" stroke-linejoin="round" stroke-width="35" x1="606.379" x2="741.992" y1="160.613" y2="25"/>
  <line stroke="#FCFDFE" stroke-linecap="round" stroke-linejoin="round" stroke-width="35" x1="735.068" x2="870.681" y1="403.793" y2="268.181"/>
  <line stroke="#FCFDFE" stroke-linecap="round" stroke-linejoin="round" stroke-width="35" x1="403.788" x2="539.401" y1="262.908" y2="127.295"/>
  <line stroke="#FCFDFE" stroke-linecap="round" stroke-linejoin="round" stroke-width="35" x1="890.151" x2="1025.76" y1="622.401" y2="486.789"/>
  <line stroke="#FCFDFE" stroke-linecap="round" stroke-linejoin="round" stroke-width="35" x1="966.965" x2="1102.58" y1="357.195" y2="221.582"/>
  <line stroke="#FCFDFE" stroke-linecap="round" stroke-linejoin="round" stroke-width="35" x1="635.684" x2="771.296" y1="216.309" y2="80.6968"/>
  <line stroke="#FCFDFE" stroke-linecap="round" stroke-linejoin="round" stroke-width="35" x1="630.042" x2="681.014" y1="508.091" y2="457.119"/>
  <line stroke="#FCFDFE" stroke-linecap="round" stroke-linejoin="round" stroke-width="35" x1="298.761" x2="349.733" y1="367.206" y2="316.234"/>
  <line stroke="#FCFDFE" stroke-linecap="round" stroke-linejoin="round" stroke-width="35" x1="785.123" x2="836.095" y1="726.699" y2="675.727"/>
  <line stroke="#FCFDFE" stroke-linecap="round" stroke-linejoin="round" stroke-width="35" x1="861.937" x2="912.909" y1="461.494" y2="410.522"/>
  <line stroke="#FCFDFE" stroke-linecap="round" stroke-linejoin="round" stroke-width="35" x1="530.657" x2="581.63" y1="320.609" y2="269.636"/>
  <line stroke="#FCFDFE" stroke-linecap="round" stroke-linejoin="round" stroke-width="35" x1="1017.02" x2="1067.99" y1="680.102" y2="629.13"/>
  <line stroke="#FCFDFE" stroke-linecap="round" stroke-linejoin="round" stroke-width="35" x1="1119.76" x2="1538.51" y1="577.359" y2="158.614"/>
  <line stroke="#FCFDFE" stroke-linecap="round" stroke-linejoin="round" stroke-width="35" x1="605.354" x2="967.71" y1="1091.77" y2="729.412"/>
  <line stroke="#FCFDFE" stroke-linecap="round" stroke-linejoin="round" stroke-width="35" x1="923.825" x2="1076.73" y1="218.131" y2="65.2261"/>
  <line stroke="#FCFDFE" stroke-linecap="round" stroke-linejoin="round" stroke-width="35" x1="1078.91" x2="1231.81" y1="436.74" y2="283.835"/>
  <line stroke="#FCFDFE" stroke-linecap="round" stroke-linejoin="round" stroke-width="35" x1="881.959" x2="1016.48" y1="174.445" y2="39.9241"/>
  <line stroke="#FCFDFE" stroke-linecap="round" stroke-linejoin="round" stroke-width="35" x1="1037.04" x2="1171.56" y1="393.054" y2="258.533"/>
  <line stroke="#FCFDFE" stroke-linecap="round" stroke-linejoin="round" stroke-width="35" x1="705.762" x2="840.282" y1="252.168" y2="117.648"/>
  <line stroke="#FCFDFE" stroke-linecap="round" stroke-linejoin="round" stroke-width="35" x1="25.9092" x2="161.522" y1="357.377" y2="221.765"/>
  <line stroke="#FCFDFE" stroke-linecap="round" stroke-linejoin="round" stroke-width="35" x1="25" x2="160.613" y1="462.222" y2="326.609"/>
  <line stroke="#FCFDFE" stroke-linecap="round" stroke-linejoin="round" stroke-width="35" x1="101.813" x2="237.426" y1="197.017" y2="61.4044"/>
  <line stroke="#FCFDFE" stroke-linecap="round" stroke-linejoin="round" stroke-width="35" x1="215.031" x2="350.644" y1="275.468" y2="139.855"/>
  <line stroke="#FCFDFE" stroke-linecap="round" stroke-linejoin="round" stroke-width="35" x1="216.123" x2="267.095" y1="170.259" y2="119.286"/>
  <line stroke="#FCFDFE" stroke-linecap="round" stroke-linejoin="round" stroke-width="35" x1="30.2783" x2="164.799" y1="732.161" y2="597.641"/>
  <line stroke="#FCFDFE" stroke-linecap="round" stroke-linejoin="round" stroke-width="35" x1="158.604" x2="293.124" y1="698.122" y2="563.602"/>
</svg>
