<svg width="1564" height="1117" viewBox="0 0 1564 1117" fill="none" xmlns="http://www.w3.org/2000/svg">
<line x1="322.788" y1="725.063" x2="458.401" y2="589.45" stroke="#FCFDFE" stroke-width="35" stroke-linecap="round" stroke-linejoin="round"/>
<line x1="554.684" y1="678.465" x2="690.296" y2="542.852" stroke="#FCFDFE" stroke-width="35" stroke-linecap="round" stroke-linejoin="round"/>
<line x1="223.404" y1="537.579" x2="359.017" y2="401.967" stroke="#FCFDFE" stroke-width="35" stroke-linecap="round" stroke-linejoin="round"/>
<line x1="439.828" y1="695.21" x2="575.441" y2="559.597" stroke="#FCFDFE" stroke-width="35" stroke-linecap="round" stroke-linejoin="round"/>
<line x1="108.549" y1="554.326" x2="244.161" y2="418.713" stroke="#FCFDFE" stroke-width="35" stroke-linecap="round" stroke-linejoin="round"/>
<line x1="671.725" y1="648.613" x2="807.337" y2="513" stroke="#FCFDFE" stroke-width="35" stroke-linecap="round" stroke-linejoin="round"/>
<line x1="340.444" y1="507.727" x2="476.057" y2="372.115" stroke="#FCFDFE" stroke-width="35" stroke-linecap="round" stroke-linejoin="round"/>
<line x1="515.732" y1="534.85" x2="651.345" y2="399.237" stroke="#FCFDFE" stroke-width="35" stroke-linecap="round" stroke-linejoin="round"/>
<line x1="184.451" y1="393.963" x2="320.064" y2="258.35" stroke="#FCFDFE" stroke-width="35" stroke-linecap="round" stroke-linejoin="round"/>
<line x1="670.813" y1="753.457" x2="806.426" y2="617.845" stroke="#FCFDFE" stroke-width="35" stroke-linecap="round" stroke-linejoin="round"/>
<line x1="339.534" y1="612.571" x2="475.147" y2="476.958" stroke="#FCFDFE" stroke-width="35" stroke-linecap="round" stroke-linejoin="round"/>
<line x1="747.627" y1="488.252" x2="883.24" y2="352.64" stroke="#FCFDFE" stroke-width="35" stroke-linecap="round" stroke-linejoin="round"/>
<line x1="416.348" y1="347.366" x2="551.96" y2="211.753" stroke="#FCFDFE" stroke-width="35" stroke-linecap="round" stroke-linejoin="round"/>
<line x1="902.71" y1="706.86" x2="1038.32" y2="571.247" stroke="#FCFDFE" stroke-width="35" stroke-linecap="round" stroke-linejoin="round"/>
<line x1="660.399" y1="949.171" x2="854.976" y2="754.594" stroke="#FCFDFE" stroke-width="35" stroke-linecap="round" stroke-linejoin="round"/>
<line x1="1094.71" y1="514.863" x2="1431.46" y2="178.106" stroke="#FCFDFE" stroke-width="35" stroke-linecap="round" stroke-linejoin="round"/>
<line x1="705.762" y1="348.095" x2="841.374" y2="212.482" stroke="#FCFDFE" stroke-width="35" stroke-linecap="round" stroke-linejoin="round"/>
<line x1="374.482" y1="207.21" x2="510.095" y2="71.5973" stroke="#FCFDFE" stroke-width="35" stroke-linecap="round" stroke-linejoin="round"/>
<line x1="860.846" y1="566.703" x2="996.458" y2="431.09" stroke="#FCFDFE" stroke-width="35" stroke-linecap="round" stroke-linejoin="round"/>
<line x1="529.565" y1="425.818" x2="665.178" y2="290.205" stroke="#FCFDFE" stroke-width="35" stroke-linecap="round" stroke-linejoin="round"/>
<line x1="937.658" y1="301.497" x2="1073.27" y2="165.884" stroke="#FCFDFE" stroke-width="35" stroke-linecap="round" stroke-linejoin="round"/>
<line x1="606.379" y1="160.613" x2="741.992" y2="25" stroke="#FCFDFE" stroke-width="35" stroke-linecap="round" stroke-linejoin="round"/>
<line x1="735.068" y1="403.793" x2="870.681" y2="268.181" stroke="#FCFDFE" stroke-width="35" stroke-linecap="round" stroke-linejoin="round"/>
<line x1="403.788" y1="262.908" x2="539.401" y2="127.295" stroke="#FCFDFE" stroke-width="35" stroke-linecap="round" stroke-linejoin="round"/>
<line x1="890.151" y1="622.401" x2="1025.76" y2="486.789" stroke="#FCFDFE" stroke-width="35" stroke-linecap="round" stroke-linejoin="round"/>
<line x1="966.965" y1="357.195" x2="1102.58" y2="221.582" stroke="#FCFDFE" stroke-width="35" stroke-linecap="round" stroke-linejoin="round"/>
<line x1="635.684" y1="216.309" x2="771.296" y2="80.6968" stroke="#FCFDFE" stroke-width="35" stroke-linecap="round" stroke-linejoin="round"/>
<line x1="630.042" y1="508.091" x2="681.014" y2="457.119" stroke="#FCFDFE" stroke-width="35" stroke-linecap="round" stroke-linejoin="round"/>
<line x1="298.761" y1="367.206" x2="349.733" y2="316.234" stroke="#FCFDFE" stroke-width="35" stroke-linecap="round" stroke-linejoin="round"/>
<line x1="785.123" y1="726.699" x2="836.095" y2="675.727" stroke="#FCFDFE" stroke-width="35" stroke-linecap="round" stroke-linejoin="round"/>
<line x1="861.937" y1="461.494" x2="912.909" y2="410.522" stroke="#FCFDFE" stroke-width="35" stroke-linecap="round" stroke-linejoin="round"/>
<line x1="530.657" y1="320.609" x2="581.63" y2="269.636" stroke="#FCFDFE" stroke-width="35" stroke-linecap="round" stroke-linejoin="round"/>
<line x1="1017.02" y1="680.102" x2="1067.99" y2="629.13" stroke="#FCFDFE" stroke-width="35" stroke-linecap="round" stroke-linejoin="round"/>
<line x1="1119.76" y1="577.359" x2="1538.51" y2="158.614" stroke="#FCFDFE" stroke-width="35" stroke-linecap="round" stroke-linejoin="round"/>
<line x1="605.354" y1="1091.77" x2="967.71" y2="729.412" stroke="#FCFDFE" stroke-width="35" stroke-linecap="round" stroke-linejoin="round"/>
<line x1="923.825" y1="218.131" x2="1076.73" y2="65.2261" stroke="#FCFDFE" stroke-width="35" stroke-linecap="round" stroke-linejoin="round"/>
<line x1="1078.91" y1="436.74" x2="1231.81" y2="283.835" stroke="#FCFDFE" stroke-width="35" stroke-linecap="round" stroke-linejoin="round"/>
<line x1="881.959" y1="174.445" x2="1016.48" y2="39.9241" stroke="#FCFDFE" stroke-width="35" stroke-linecap="round" stroke-linejoin="round"/>
<line x1="1037.04" y1="393.054" x2="1171.56" y2="258.533" stroke="#FCFDFE" stroke-width="35" stroke-linecap="round" stroke-linejoin="round"/>
<line x1="705.762" y1="252.168" x2="840.282" y2="117.648" stroke="#FCFDFE" stroke-width="35" stroke-linecap="round" stroke-linejoin="round"/>
<line x1="25.9092" y1="357.377" x2="161.522" y2="221.765" stroke="#FCFDFE" stroke-width="35" stroke-linecap="round" stroke-linejoin="round"/>
<line x1="25" y1="462.222" x2="160.613" y2="326.609" stroke="#FCFDFE" stroke-width="35" stroke-linecap="round" stroke-linejoin="round"/>
<line x1="101.813" y1="197.017" x2="237.426" y2="61.4044" stroke="#FCFDFE" stroke-width="35" stroke-linecap="round" stroke-linejoin="round"/>
<line x1="215.031" y1="275.468" x2="350.644" y2="139.855" stroke="#FCFDFE" stroke-width="35" stroke-linecap="round" stroke-linejoin="round"/>
<line x1="216.123" y1="170.259" x2="267.095" y2="119.286" stroke="#FCFDFE" stroke-width="35" stroke-linecap="round" stroke-linejoin="round"/>
<line x1="30.2783" y1="732.161" x2="164.799" y2="597.641" stroke="#FCFDFE" stroke-width="35" stroke-linecap="round" stroke-linejoin="round"/>
<line x1="158.604" y1="698.122" x2="293.124" y2="563.602" stroke="#FCFDFE" stroke-width="35" stroke-linecap="round" stroke-linejoin="round"/>
</svg>
