<svg xmlns="http://www.w3.org/2000/svg" width="16.307" height="20.962" viewBox="0 0 16.307 20.962">
  <g id="trash" transform="translate(0)">
    <path id="Path_128" data-name="Path 128" d="M126.73,1.265h3.5v.589H131.5V1.183A1.184,1.184,0,0,0,130.317,0h-3.67a1.184,1.184,0,0,0-1.182,1.183v.672h1.265Zm0,0" transform="translate(-120.328 0)" fill="#f4f6f8"/>
    <path id="Path_129" data-name="Path 129" d="M52.925,167.75H41.048a.557.557,0,0,0-.555.6l.993,12.278a1.319,1.319,0,0,0,1.314,1.213h8.374a1.319,1.319,0,0,0,1.314-1.214l.993-12.278a.557.557,0,0,0-.555-.6Zm-9,12.784h-.04a.633.633,0,0,1-.631-.594l-.622-10.08a.633.633,0,0,1,1.263-.078l.622,10.08a.633.633,0,0,1-.592.67Zm3.7-.631a.633.633,0,0,1-1.265,0v-10.08a.633.633,0,1,1,1.265,0Zm3.716-10.043-.594,10.08a.633.633,0,0,1-.631.6h-.038a.633.633,0,0,1-.594-.669l.594-10.08a.633.633,0,0,1,1.263.075Zm0,0" transform="translate(-38.832 -160.882)" fill="#f4f6f8"/>
    <path id="Path_130" data-name="Path 130" d="M16.28,78.007l-.415-1.245a.8.8,0,0,0-.763-.55H1.206a.8.8,0,0,0-.763.55L.028,78.007a.523.523,0,0,0,.5.687H15.785a.515.515,0,0,0,.276-.08.521.521,0,0,0,.219-.607Zm0,0" transform="translate(0 -73.091)" fill="#f4f6f8"/>
  </g>
</svg>
