<svg xmlns="http://www.w3.org/2000/svg" width="101.333" height="101.333" preserveAspectRatio="xMidYMid meet" version="1.0" viewBox="0 0 76 76"><metadata>Created by potrace 1.11, written by Peter Selinger 2001-2013</metadata><g fill="#000" stroke="none"><path d="M70 723 c13 -21 30 -51 40 -68 9 -16 49 -83 88 -147 40 -64 72 -120 72 -125 0 -4 -52 -91 -115 -193 l-114 -185 96 -3 c53 -1 102 -1 108 2 6 2 40 54 74 116 l63 112 66 -116 66 -116 108 0 107 0 -27 45 c-15 25 -121 196 -235 380 l-209 335 -105 0 -105 0 22 -37z" transform="translate(0.000000,76.000000) scale(0.100000,-0.100000)"/><path d="M467 677 c-26 -46 -47 -89 -47 -96 0 -14 82 -151 90 -151 6 0 200 315 200 325 0 3 -44 5 -98 5 l-98 0 -47 -83z" transform="translate(0.000000,76.000000) scale(0.100000,-0.100000)"/></g></svg>