<svg xmlns="http://www.w3.org/2000/svg" id="ae636c83-9a69-4d8f-8683-8786b472330f" width="643.451" height="542.339" data-name="Layer 1" viewBox="0 0 643.451 542.339"><ellipse cx="567" cy="537" fill="#e6e6e6" rx="70" ry="5.339"/><ellipse cx="226" cy="537" fill="#e6e6e6" rx="70" ry="5.339"/><path fill="#e6e6e6" d="M814.77448,650.83051h-476a7.5082,7.5082,0,0,1-7.5-7.5v-457a7.5082,7.5082,0,0,1,7.5-7.5h476a7.5082,7.5082,0,0,1,7.5,7.5v457A7.5082,7.5082,0,0,1,814.77448,650.83051Zm-476-469a4.50492,4.50492,0,0,0-4.5,4.5v457a4.50493,4.50493,0,0,0,4.5,4.5h476a4.50492,4.50492,0,0,0,4.5-4.5v-457a4.50491,4.50491,0,0,0-4.5-4.5Z" transform="translate(-278.27448 -178.83051)"/><path fill="#e6e6e6" d="M366.27448,218.83051a3.00328,3.00328,0,0,0-3,3v124a3.00328,3.00328,0,0,0,3,3h124a3.00328,3.00328,0,0,0,3-3v-124a3.00328,3.00328,0,0,0-3-3Z" transform="translate(-278.27448 -178.83051)"/><path id="b9d15c13-74bb-46fd-a6fd-5a7002be597d" fill="#e6e6e6" d="M561.31441,308.581a3.625,3.625,0,0,0,0,7.249h170.878a3.625,3.625,0,1,0,.119-7.249q-.05951-.001-.119,0Z" data-name="Path 40" transform="translate(-278.27448 -178.83051)"/><path id="fb98932a-aea9-43a1-946e-96a095a0002f" fill="#e6e6e6" d="M561.31441,275.581a3.625,3.625,0,0,0,0,7.249h48.878a3.625,3.625,0,1,0,.119-7.249q-.05951-.001-.119,0Z" data-name="Path 40" transform="translate(-278.27448 -178.83051)"/><path id="a8382d7c-76a2-4f66-b41d-b5784413a475" fill="#e6e6e6" d="M561.31441,342.581a3.625,3.625,0,0,0,0,7.249h170.878a3.625,3.625,0,0,0,.119-7.249q-.05951-.001-.119,0Z" data-name="Path 40" transform="translate(-278.27448 -178.83051)"/><path id="a69b3c31-ebec-4776-89b9-9c88b713759e" fill="#e6e6e6" d="M764.58325,473.54293h-234.838c-4.578,0-8.288-2.643-8.293-5.9v-51.042c.005-3.257,3.715-5.9,8.293-5.9h234.838c4.578,0,8.288,2.643,8.293,5.9v51.041C772.87226,470.899,769.16126,473.53893,764.58325,473.54293Z" data-name="Path 78" transform="translate(-278.27448 -178.83051)"/><path id="ac481be8-039b-4a38-bb10-2d9a81406e5c" fill="#e6e6e6" d="M605.58325,597.54293h-234.838c-4.578,0-8.288-2.643-8.293-5.9v-51.042c.005-3.257,3.715-5.9,8.293-5.9h234.838c4.578,0,8.288,2.643,8.293,5.9v51.041C613.87226,594.899,610.16126,597.53893,605.58325,597.54293Z" data-name="Path 78" transform="translate(-278.27448 -178.83051)"/><path id="e05581d0-cd6a-412e-af3c-57495fab8d46" fill="#3f3d56" d="M534.74073,625.661h-234.838c-4.578,0-8.288-2.643-8.293-5.9V568.719c.005-3.257,3.715-5.9,8.293-5.9h234.838c4.578,0,8.288,2.643,8.293,5.9V619.76C543.02974,623.017,539.31874,625.657,534.74073,625.661Zm-234.838-60.484c-2.747,0-4.973,1.586-4.976,3.54v51.041c0,1.954,2.229,3.538,4.976,3.54h234.838c2.747,0,4.973-1.586,4.976-3.54V568.719c0-1.954-2.229-3.538-4.976-3.54Z" data-name="Path 78" transform="translate(-278.27448 -178.83051)"/><circle cx="341" cy="288" r="19" fill="#e85b3f"/><circle cx="56" cy="415" r="19" fill="#e85b3f"/><path id="f4993879-8a0d-4ea4-907e-e549be7081a0" fill="#3f3d56" d="M660.31441,453.206a3.625,3.625,0,0,0,0,7.249h135.878a3.625,3.625,0,0,0,.119-7.249q-.05951-.001-.119,0Z" data-name="Path 40" transform="translate(-278.27448 -178.83051)"/><path id="a649136c-96b9-48c7-9686-75389104c34a" fill="#3f3d56" d="M660.31441,473.206a3.625,3.625,0,0,0,0,7.249h135.878a3.625,3.625,0,0,0,.119-7.249q-.05951-.001-.119,0Z" data-name="Path 40" transform="translate(-278.27448 -178.83051)"/><path id="bf4cb793-0df2-4753-9628-c376ea3545d1" fill="#3f3d56" d="M375.31441,580.206a3.625,3.625,0,0,0,0,7.249h135.878a3.625,3.625,0,0,0,.119-7.249q-.05951-.001-.119,0Z" data-name="Path 40" transform="translate(-278.27448 -178.83051)"/><path id="bf2170fd-291c-4664-b596-01f8e04656d6" fill="#3f3d56" d="M375.31441,600.206a3.625,3.625,0,0,0,0,7.249h135.878a3.625,3.625,0,0,0,.119-7.249q-.05951-.001-.119,0Z" data-name="Path 40" transform="translate(-278.27448 -178.83051)"/><circle cx="568.973" cy="475.931" r="43.067" fill="#2f2e41"/><rect width="13.084" height="23.442" x="575.515" y="509.73" fill="#2f2e41"/><rect width="13.084" height="23.442" x="549.347" y="509.73" fill="#2f2e41"/><ellipse cx="577.696" cy="533.445" fill="#2f2e41" rx="10.903" ry="4.089"/><ellipse cx="551.528" cy="532.899" fill="#2f2e41" rx="10.903" ry="4.089"/><circle cx="567.883" cy="465.027" r="14.719" fill="#fff"/><circle cx="567.883" cy="465.027" r="4.906" fill="#3f3d56"/><path fill="#e6e6e6" d="M889.02425,614.70972c3.47747-15.57379-7.63868-31.31043-24.82862-35.14881s-33.94421,5.67511-37.42169,21.24891,7.91492,21.31768,25.10486,25.156S885.54671,630.28357,889.02425,614.70972Z" transform="translate(-278.27448 -178.83051)"/><path fill="#2f2e41" d="M388.58448,368.79047a42.8306,42.8306,0,0,1-4.43,19.04c-.33.68-.68,1.34-1.05,2h-75.17c-.37-.66-.72-1.32-1.05-2a43.07126,43.07126,0,1,1,81.7-19.04Z" transform="translate(-278.27448 -178.83051)"/><circle cx="68.336" cy="179.052" r="14.719" fill="#fff"/><circle cx="68.336" cy="179.052" r="4.906" fill="#3f3d56"/><path fill="#e85b3f" d="M303.74361,328.73454c-3.47748-15.57379,7.63867-31.31043,24.82861-35.14881s33.94422,5.67511,37.42169,21.24891-7.91491,21.31768-25.10485,25.156S307.22115,344.30839,303.74361,328.73454Z" transform="translate(-278.27448 -178.83051)"/><path fill="#3f3d56" d="M407.27448,255.83051h-124a5.00181,5.00181,0,0,0-5,5v124a5.00181,5.00181,0,0,0,5,5h124a5.00181,5.00181,0,0,0,5-5v-124A5.00181,5.00181,0,0,0,407.27448,255.83051Zm3,129a3.00883,3.00883,0,0,1-3,3h-124a3.00883,3.00883,0,0,1-3-3v-124a3.00879,3.00879,0,0,1,3-3h124a3.00878,3.00878,0,0,1,3,3Z" transform="translate(-278.27448 -178.83051)"/><ellipse cx="537.065" cy="622.239" fill="#2f2e41" rx="21.534" ry="6.76" transform="translate(-514.18629 722.92057) rotate(-69.08217)"/><circle cx="497.258" cy="654.761" r="43.067" fill="#2f2e41" transform="translate(-506.97468 861.88678) rotate(-80.78252)"/><rect width="13.084" height="23.442" x="199.358" y="509.73" fill="#2f2e41"/><rect width="13.084" height="23.442" x="225.526" y="509.73" fill="#2f2e41"/><ellipse cx="210.261" cy="533.445" fill="#2f2e41" rx="10.903" ry="4.089"/><ellipse cx="236.429" cy="532.899" fill="#2f2e41" rx="10.903" ry="4.089"/><path fill="#e85b3f" d="M455.48148,614.70969c-3.47748-15.57379,7.63867-31.31046,24.82861-35.14884s33.94421,5.67508,37.42169,21.24887-7.91492,21.31766-25.10486,25.156S458.959,630.28351,455.48148,614.70969Z" transform="translate(-278.27448 -178.83051)"/><ellipse cx="448.75" cy="634.778" fill="#2f2e41" rx="6.76" ry="21.534" transform="translate(-595.36631 589.38455) rotate(-64.62574)"/><circle cx="581.968" cy="344.643" r="42.012" fill="#2f2e41"/><rect width="12.763" height="22.867" x="866.83" y="556.385" fill="#2f2e41" transform="translate(-280.90454 -174.76527) rotate(-0.26634)"/><rect width="12.763" height="22.867" x="841.304" y="556.504" fill="#2f2e41" transform="translate(-280.90537 -174.88393) rotate(-0.26634)"/><ellipse cx="845.091" cy="581.776" fill="#2f2e41" rx="10.636" ry="3.989" transform="translate(-456.30877 326.41344) rotate(-30.26634)"/><ellipse cx="870.086" cy="581.66" fill="#2f2e41" rx="10.636" ry="3.989" transform="translate(-452.84325 338.99529) rotate(-30.26634)"/><circle cx="580.855" cy="334.012" r="14.359" fill="#fff"/><circle cx="575.937" cy="327.919" r="4.786" fill="#3f3d56"/><path fill="#e85b3f" d="M900.81388,484.21377c3.32162-15.20789-7.5934-30.50849-24.37949-34.17481s-33.08659,5.68993-36.40825,20.89782,7.81762,20.75932,24.60367,24.4257S897.49225,499.42167,900.81388,484.21377Z" transform="translate(-278.27448 -178.83051)"/><ellipse cx="816.367" cy="502.203" fill="#2f2e41" rx="6.594" ry="21.006" transform="translate(-242.24392 879.91271) rotate(-67.09517)"/><ellipse cx="902.204" cy="537.022" fill="#2f2e41" rx="6.594" ry="21.006" transform="translate(-221.88888 980.24914) rotate(-67.09517)"/><path fill="#fff" d="M868.73264,541.781a9.57243,9.57243,0,1,1-19.14455.10779l-.0001-.01879c-.02458-5.28665,4.256-6.40152,9.54268-6.42606S868.70809,536.49432,868.73264,541.781Z" transform="translate(-278.27448 -178.83051)"/><path id="acccf4df-3a09-4c7b-a8c8-af469fe66e6d" fill="#3f3d56" d="M825.67774,498.49559h-234.838c-4.578,0-8.288-2.643-8.293-5.9v-51.042c.005-3.257,3.715-5.9,8.293-5.9h234.838c4.578,0,8.288,2.643,8.293,5.9v51.041C833.96674,495.85161,830.25575,498.4916,825.67774,498.49559Zm-234.838-60.484c-2.747,0-4.973,1.586-4.976,3.54v51.041c0,1.954,2.229,3.538,4.976,3.54h234.838c2.747,0,4.973-1.586,4.976-3.54v-51.039c0-1.954-2.229-3.538-4.976-3.54Z" data-name="Path 78" transform="translate(-278.27448 -178.83051)"/></svg>