<?xml version="1.0" encoding="utf-8"?>
<!-- Generator: Adobe Illustrator 24.1.2, SVG Export Plug-In . SVG Version: 6.00 Build 0)  -->
<svg version="1.1" id="e18ebc6e-17e0-463f-bef8-5e03a9b69a2f"
	 xmlns="http://www.w3.org/2000/svg" xmlns:xlink="http://www.w3.org/1999/xlink" x="0px" y="0px" viewBox="0 0 941.4 435.4"
	 style="enable-background:new 0 0 941.4 435.4;" xml:space="preserve">
<style type="text/css">
	.st0{fill:#3F3D56;}
	.st1{fill:#E85B3F;}
	.st2{fill:#D0CDE1;}
	.st3{fill:#2F2E41;}
	.st4{fill:#FFFFFF;}
	.st5{fill:#F2F2F2;}
	.st6{fill:#E6E6E6;}
</style>
<path class="st0" d="M798.9,5.4H538.7V0h-118v5.4H159.5c-9.7,0-17.6,7.9-17.6,17.6v0v356.3c0,9.7,7.9,17.6,17.6,17.6h639.4
	c9.7,0,17.6-7.9,17.6-17.6l0,0V23C816.4,13.2,808.6,5.4,798.9,5.4C798.9,5.4,798.9,5.4,798.9,5.4z"/>
<rect x="165.5" y="36.5" class="st1" width="627.4" height="353.9"/>
<circle class="st1" cx="478.6" cy="20.4" r="6.4"/>
<path class="st0" d="M756.8,81.5h-29.7V51.8h29.7V81.5z M728.4,80.2h27.2V53.1h-27.2V80.2z"/>
<path class="st0" d="M834.1,383.9h-61.2v-4.4c0-0.5-0.4-0.9-0.9-0.9l0,0h-21c-0.5,0-0.9,0.4-0.9,0.9l0,0v4.4H737v-4.4
	c0-0.5-0.4-0.9-0.9-0.9l0,0h-21c-0.5,0-0.9,0.4-0.9,0.9l0,0v4.4h-13.1v-4.4c0-0.5-0.4-0.9-0.9-0.9l0,0h-21c-0.5,0-0.9,0.4-0.9,0.9
	l0,0v4.4h-13.1v-4.4c0-0.5-0.4-0.9-0.9-0.9l0,0h-21c-0.5,0-0.9,0.4-0.9,0.9l0,0v4.4h-13.1v-4.4c0-0.5-0.4-0.9-0.9-0.9l0,0h-21
	c-0.5,0-0.9,0.4-0.9,0.9l0,0v4.4h-13.1v-4.4c0-0.5-0.4-0.9-0.9-0.9l0,0h-21c-0.5,0-0.9,0.4-0.9,0.9l0,0v4.4h-13.1v-4.4
	c0-0.5-0.4-0.9-0.9-0.9l0,0H392.3c-0.5,0-0.9,0.4-0.9,0.9l0,0v4.4h-13.1v-4.4c0-0.5-0.4-0.9-0.9-0.9h0h-21c-0.5,0-0.9,0.4-0.9,0.9
	l0,0v4.4h-13.1v-4.4c0-0.5-0.4-0.9-0.9-0.9h0h-21c-0.5,0-0.9,0.4-0.9,0.9l0,0v4.4h-13.1v-4.4c0-0.5-0.4-0.9-0.9-0.9h0h-21
	c-0.5,0-0.9,0.4-0.9,0.9l0,0v4.4h-13.1v-4.4c0-0.5-0.4-0.9-0.9-0.9h0h-21c-0.5,0-0.9,0.4-0.9,0.9l0,0v4.4h-13.1v-4.4
	c0-0.5-0.4-0.9-0.9-0.9h0h-21c-0.5,0-0.9,0.4-0.9,0.9l0,0v4.4H199v-4.4c0-0.5-0.4-0.9-0.9-0.9h0h-21c-0.5,0-0.9,0.4-0.9,0.9l0,0v4.4
	h-40.2c-11.6,0-21,9.4-21,21l0,0v9.5c0,11.6,9.4,21,21,21h698c11.6,0,21-9.4,21-21v-9.5C855.1,393.3,845.7,383.9,834.1,383.9z"/>
<path class="st0" d="M754.1,233.7h-202v-115h202V233.7z M554.1,231.7h198v-111h-198V231.7z"/>
<path class="st0" d="M384.1,256.7h-180v-112h180V256.7z M206.1,254.7h176v-108h-176V254.7z"/>
<path class="st2" d="M288.2,213.7l-0.2-2.2c-0.5-4.6,1-9.7,5.3-14.9c3.9-4.6,6-7.9,6-11.8c0-4.4-2.8-7.3-8.2-7.4
	c-3.1,0-6.1,0.9-8.7,2.7l-2.1-5.4c2.8-2.1,7.7-3.4,12.3-3.4c9.9,0,14.4,6.1,14.4,12.6c0,5.8-3.3,10.1-7.4,15
	c-3.8,4.5-5.2,8.3-4.9,12.6l0.1,2.2L288.2,213.7z M286.3,225.7c-0.2-2.8,1.9-5.2,4.7-5.4c0.1,0,0.3,0,0.4,0c3,0,5.1,2.2,5.1,5.4
	c0.1,2.8-2.1,5.2-4.9,5.3c-2.8,0.1-5.2-2.1-5.3-4.9C286.3,226,286.3,225.9,286.3,225.7z"/>
<path class="st2" d="M647.2,188.7l-0.2-2.2c-0.5-4.6,1-9.7,5.3-14.9c3.9-4.6,6-7.9,6-11.8c0-4.4-2.8-7.3-8.2-7.4
	c-3.1,0-6.1,0.9-8.7,2.7l-2.1-5.4c2.8-2.1,7.7-3.4,12.3-3.4c9.9,0,14.4,6.1,14.4,12.6c0,5.8-3.3,10.1-7.4,15
	c-3.8,4.5-5.2,8.3-4.9,12.6l0.1,2.2L647.2,188.7z M645.3,200.7c-0.2-2.8,1.9-5.2,4.7-5.4c0.1,0,0.3,0,0.4,0c3,0,5.1,2.2,5.1,5.4
	c0.1,2.8-2.1,5.2-4.9,5.3s-5.2-2.1-5.3-4.9C645.3,201,645.3,200.9,645.3,200.7z"/>
<circle class="st3" cx="482.7" cy="260.8" r="86.3"/>
<polygon class="st3" points="449.4,379 423.6,374.3 431.9,320.5 457.7,325.2 "/>
<rect x="468.8" y="342.2" transform="matrix(0.1781 -0.984 0.984 0.1781 54.9719 776.3517)" class="st3" width="47" height="26.2"/>
<ellipse transform="matrix(0.1979 -0.9802 0.9802 0.1979 27.0668 790.8892)" class="st3" cx="496.8" cy="378.9" rx="8.2" ry="21.8"/>
<ellipse transform="matrix(0.1313 -0.9913 0.9913 0.1313 8.9744 768.1761)" class="st3" cx="442.8" cy="379" rx="8.2" ry="21.8"/>
<circle class="st4" cx="488.7" cy="239.7" r="29.5"/>
<circle class="st0" cx="500.9" cy="229.2" r="9.8"/>
<path class="st4" d="M414.6,167c-1.3-31.9,26.2-59,61.5-60.4s64.9,23.3,66.2,55.3s-23.2,39.2-58.5,40.6S415.9,198.9,414.6,167z"/>
<ellipse transform="matrix(0.9747 -0.2234 0.2234 0.9747 -40.5512 131.8426)" class="st3" cx="562.4" cy="245.1" rx="43.1" ry="13.5"/>
<ellipse transform="matrix(0.9747 -0.2234 0.2234 0.9747 -51.1266 94.7096)" class="st3" cx="393" cy="273.3" rx="43.1" ry="13.5"/>
<path class="st4" d="M459,294.9c-1.9,10.7,5.2,20.9,15.8,22.8c10.7,1.9,20.9-5.2,22.8-15.8s-6.3-14.5-17-16.4S460.9,284.2,459,294.9
	z"/>
<rect x="154.5" y="13.1" class="st2" width="141.9" height="135"/>
<rect x="170.7" y="29.2" class="st4" width="109.6" height="83.8"/>
<rect x="170.5" y="123" class="st5" width="59.6" height="3.1"/>
<rect x="170.5" y="132.4" class="st5" width="59.6" height="3.1"/>
<circle class="st0" cx="190.2" cy="71.2" r="12.6"/>
<circle class="st1" cx="225.5" cy="71.2" r="12.6"/>
<ellipse transform="matrix(0.1602 -0.9871 0.9871 0.1602 148.7453 317.2083)" class="st6" cx="260.8" cy="71.2" rx="12.6" ry="12.6"/>
<circle class="st0" cx="225.5" cy="21" r="6.3"/>
<rect x="222" y="274.5" class="st2" width="141.9" height="135"/>
<rect x="238.1" y="290.6" class="st4" width="109.6" height="83.8"/>
<rect x="262.3" y="304.4" class="st1" width="38.4" height="38.4"/>
<path class="st0" d="M277,314v46.7h46.7V314H277z M321.6,358.6H279V316h42.6L321.6,358.6z"/>
<rect x="238" y="382.7" class="st5" width="59.6" height="3.1"/>
<circle class="st0" cx="293" cy="282.3" r="6.3"/>
<rect x="591.4" y="234.1" class="st2" width="141.9" height="135"/>
<rect x="607.6" y="250.2" class="st4" width="109.6" height="83.8"/>
<rect x="650.6" y="315.8" class="st0" width="23.6" height="7"/>
<rect x="622.1" y="261.4" class="st0" width="80.6" height="3"/>
<rect x="622.1" y="270.9" class="st0" width="80.6" height="3"/>
<rect x="622.1" y="280.4" class="st0" width="80.6" height="3"/>
<rect x="622.1" y="289.9" class="st0" width="80.6" height="3"/>
<rect x="622.1" y="299.3" class="st0" width="80.6" height="3"/>
<rect x="607.5" y="342.3" class="st5" width="59.6" height="3.1"/>
<rect x="607.5" y="350.2" class="st5" width="83.2" height="3.1"/>
<circle class="st0" cx="662.4" cy="241.9" r="6.3"/>
</svg>
