<svg xmlns="http://www.w3.org/2000/svg" width="96.957" height="187.976" viewBox="0 0 96.957 187.976"><g id="Group_247" data-name="Group 247" transform="translate(-19905.363 -10107.913)"><ellipse id="Ellipse_368" cx="30.421" cy="30.422" fill="#2f2e41" data-name="Ellipse 368" rx="30.421" ry="30.422" transform="translate(19927.744 10221.952)"/><rect id="Rectangle_521" width="9.242" height="16.559" fill="#2f2e41" data-name="Rectangle 521" transform="translate(19962.787 10276.249)"/><rect id="Rectangle_522" width="9.242" height="16.559" fill="#2f2e41" data-name="Rectangle 522" transform="translate(19944.303 10276.249)"/><ellipse id="Ellipse_369" cx="7.702" cy="2.888" fill="#2f2e41" data-name="Ellipse 369" rx="7.702" ry="2.888" transform="translate(19956.625 10290.112)"/><ellipse id="Ellipse_370" cx="7.702" cy="2.888" fill="#2f2e41" data-name="Ellipse 370" rx="7.702" ry="2.888" transform="translate(19938.141 10289.727)"/><ellipse id="Ellipse_371" cx="10.397" cy="10.397" fill="#fff" data-name="Ellipse 371" rx="10.397" ry="10.397" transform="translate(19946.998 10234.274)"/><ellipse id="Ellipse_372" cx="3.466" cy="3.466" fill="#3f3d56" data-name="Ellipse 372" rx="3.466" ry="3.466" transform="translate(19953.93 10236.585)"/><path id="Path_487" fill="#e85b3f" d="M100.239,198.3c2.456-11-5.4-22.117-17.538-24.828s-23.977,4.009-26.434,15.01S61.858,203.543,74,206.254,97.782,209.3,100.239,198.3Z" data-name="Path 487" transform="translate(19887.438 10025.779)"/><ellipse id="Ellipse_373" cx="15.211" cy="4.775" fill="#2f2e41" data-name="Ellipse 373" rx="15.211" ry="4.775" transform="translate(19937.229 10234.518) rotate(-114.923)"/><ellipse id="Ellipse_374" cx="4.775" cy="15.211" fill="#2f2e41" data-name="Ellipse 374" rx="4.775" ry="15.211" transform="translate(19988.088 10243.631) rotate(-152.107)"/><ellipse id="Ellipse_375" cx="30.421" cy="30.422" fill="#2f2e41" data-name="Ellipse 375" rx="30.421" ry="30.422" transform="translate(19918.924 10131.915)"/><rect id="Rectangle_523" width="9.242" height="16.559" fill="#2f2e41" data-name="Rectangle 523" transform="translate(19970.188 10199.654) rotate(169.739)"/><rect id="Rectangle_524" width="9.242" height="16.559" fill="#2f2e41" data-name="Rectangle 524" transform="translate(19952 10202.947) rotate(169.739)"/><ellipse id="Ellipse_376" cx="2.888" cy="7.702" fill="#2f2e41" data-name="Ellipse 376" rx="2.888" ry="7.702" transform="translate(19941.857 10212.999) rotate(-130.261)"/><ellipse id="Ellipse_377" cx="2.888" cy="7.702" fill="#2f2e41" data-name="Ellipse 377" rx="2.888" ry="7.702" transform="translate(19959.666 10209.775) rotate(-130.261)"/><ellipse id="Ellipse_378" cx="10.397" cy="10.397" fill="#fff" data-name="Ellipse 378" rx="10.397" ry="10.397" transform="translate(19936.818 10144.498)"/><ellipse id="Ellipse_379" cx="3.466" cy="3.466" fill="#3f3d56" data-name="Ellipse 379" rx="3.466" ry="3.466" transform="translate(19939.477 10147.703)"/><path id="Path_488" fill="#e85b3f" d="M113.026,119.44c.457-11.263-9.249-20.8-21.68-21.307s-22.88,8.216-23.337,19.478,8.184,13.821,20.615,14.326S112.569,130.7,113.026,119.44Z" data-name="Path 488" transform="translate(19860.318 10009.801)"/><ellipse id="Ellipse_380" cx="15.211" cy="4.775" fill="#2f2e41" data-name="Ellipse 380" rx="15.211" ry="4.775" transform="translate(19935.016 10164.847) rotate(-167.09)"/><ellipse id="Ellipse_381" cx="15.211" cy="4.775" fill="#2f2e41" data-name="Ellipse 381" rx="15.211" ry="4.775" transform="translate(19994.732 10174.777) rotate(-167.09)"/><path id="Path_489" fill="#fff" d="M94.541,153.466A6.931,6.931,0,1,1,80.9,155.936c-.682-3.767,2.231-5.1,6-5.782S93.859,149.7,94.541,153.466Z" data-name="Path 489" transform="translate(19863.16 10020.859)"/></g></svg>