<svg height="187.976" viewBox="0 0 96.957 187.976" width="96.957" xmlns="http://www.w3.org/2000/svg">
  <g data-name="Group 247" id="Group_247" transform="translate(-19905.363 -10107.913)">
    <ellipse cx="30.421" cy="30.422" data-name="Ellipse 368" fill="#2f2e41" id="Ellipse_368" rx="30.421" ry="30.422" transform="translate(19927.744 10221.952)"/>
    <rect data-name="Rectangle 521" fill="#2f2e41" height="16.559" id="Rectangle_521" transform="translate(19962.787 10276.249)" width="9.242"/>
    <rect data-name="Rectangle 522" fill="#2f2e41" height="16.559" id="Rectangle_522" transform="translate(19944.303 10276.249)" width="9.242"/>
    <ellipse cx="7.702" cy="2.888" data-name="Ellipse 369" fill="#2f2e41" id="Ellipse_369" rx="7.702" ry="2.888" transform="translate(19956.625 10290.112)"/>
    <ellipse cx="7.702" cy="2.888" data-name="Ellipse 370" fill="#2f2e41" id="Ellipse_370" rx="7.702" ry="2.888" transform="translate(19938.141 10289.727)"/>
    <ellipse cx="10.397" cy="10.397" data-name="Ellipse 371" fill="#fff" id="Ellipse_371" rx="10.397" ry="10.397" transform="translate(19946.998 10234.274)"/>
    <ellipse cx="3.466" cy="3.466" data-name="Ellipse 372" fill="#3f3d56" id="Ellipse_372" rx="3.466" ry="3.466" transform="translate(19953.93 10236.585)"/>
    <path d="M100.239,198.3c2.456-11-5.4-22.117-17.538-24.828s-23.977,4.009-26.434,15.01S61.858,203.543,74,206.254,97.782,209.3,100.239,198.3Z" data-name="Path 487" fill="#e85b3f" id="Path_487" transform="translate(19887.438 10025.779)"/>
    <ellipse cx="15.211" cy="4.775" data-name="Ellipse 373" fill="#2f2e41" id="Ellipse_373" rx="15.211" ry="4.775" transform="translate(19937.229 10234.518) rotate(-114.923)"/>
    <ellipse cx="4.775" cy="15.211" data-name="Ellipse 374" fill="#2f2e41" id="Ellipse_374" rx="4.775" ry="15.211" transform="translate(19988.088 10243.631) rotate(-152.107)"/>
    <ellipse cx="30.421" cy="30.422" data-name="Ellipse 375" fill="#2f2e41" id="Ellipse_375" rx="30.421" ry="30.422" transform="translate(19918.924 10131.915)"/>
    <rect data-name="Rectangle 523" fill="#2f2e41" height="16.559" id="Rectangle_523" transform="translate(19970.188 10199.654) rotate(169.739)" width="9.242"/>
    <rect data-name="Rectangle 524" fill="#2f2e41" height="16.559" id="Rectangle_524" transform="translate(19952 10202.947) rotate(169.739)" width="9.242"/>
    <ellipse cx="2.888" cy="7.702" data-name="Ellipse 376" fill="#2f2e41" id="Ellipse_376" rx="2.888" ry="7.702" transform="translate(19941.857 10212.999) rotate(-130.261)"/>
    <ellipse cx="2.888" cy="7.702" data-name="Ellipse 377" fill="#2f2e41" id="Ellipse_377" rx="2.888" ry="7.702" transform="translate(19959.666 10209.775) rotate(-130.261)"/>
    <ellipse cx="10.397" cy="10.397" data-name="Ellipse 378" fill="#fff" id="Ellipse_378" rx="10.397" ry="10.397" transform="translate(19936.818 10144.498)"/>
    <ellipse cx="3.466" cy="3.466" data-name="Ellipse 379" fill="#3f3d56" id="Ellipse_379" rx="3.466" ry="3.466" transform="translate(19939.477 10147.703)"/>
    <path d="M113.026,119.44c.457-11.263-9.249-20.8-21.68-21.307s-22.88,8.216-23.337,19.478,8.184,13.821,20.615,14.326S112.569,130.7,113.026,119.44Z" data-name="Path 488" fill="#e85b3f" id="Path_488" transform="translate(19860.318 10009.801)"/>
    <ellipse cx="15.211" cy="4.775" data-name="Ellipse 380" fill="#2f2e41" id="Ellipse_380" rx="15.211" ry="4.775" transform="translate(19935.016 10164.847) rotate(-167.09)"/>
    <ellipse cx="15.211" cy="4.775" data-name="Ellipse 381" fill="#2f2e41" id="Ellipse_381" rx="15.211" ry="4.775" transform="translate(19994.732 10174.777) rotate(-167.09)"/>
    <path d="M94.541,153.466A6.931,6.931,0,1,1,80.9,155.936c-.682-3.767,2.231-5.1,6-5.782S93.859,149.7,94.541,153.466Z" data-name="Path 489" fill="#fff" id="Path_489" transform="translate(19863.16 10020.859)"/>
  </g>
</svg>
