<svg xmlns="http://www.w3.org/2000/svg" xmlns:xlink="http://www.w3.org/1999/xlink" id="aa03ddf9-f8f2-4819-a4ce-be9b0a220741" x="0" y="0" version="1.1" viewBox="0 0 1119.6 699" xml:space="preserve" style="enable-background:new 0 0 1119.6 699"><style type="text/css">.st0{fill:#f2f2f2}.st1{fill:#3f3d56}.st2{opacity:.1;enable-background:new}.st3{fill:none;stroke:#2f2e41;stroke-width:2;stroke-miterlimit:10}.st4{fill:#2f2e41}.st5,.st6{enable-background:new}.st5{opacity:.4;fill:#e85b3f}.st6{opacity:.8}.st6,.st7{fill:#e85b3f}.st8{fill:#fff}</style><circle cx="292.6" cy="213" r="213" class="st0"/><ellipse cx="198.6" cy="424.5" class="st1" rx="187" ry="25.4"/><ellipse cx="198.6" cy="424.5" class="st2" rx="157" ry="21.4"/><ellipse cx="836.6" cy="660.5" class="st1" rx="283" ry="38.5"/><ellipse cx="310.6" cy="645.5" class="st1" rx="170" ry="23.1"/><path d="M462.6,626c90,23,263-30,282-90" class="st3"/><path d="M309.6,259c0,0,130-36,138,80s-107,149-17,172" class="st3"/><path d="M184,537.3c0,0,39.1-10.8,41.5,24c2.4,34.9-32.2,44.8-5.1,51.7" class="st3"/><path d="M778.7,563.2l-7.9,50.3c0,0-38.8,20.6-11.5,21.2s155.7,0,155.7,0s24.8,0-14.5-21.8l-7.9-52.7L778.7,563.2z" class="st4"/><path d="M753.8,634.2c6.2-5.5,17-11.3,17-11.3l7.9-50.3l113.9,0.1l7.9,49.6c9.2,5.1,14.9,9,18.2,12	c5.1-1.2,10.6-5.4-18.2-21.4l-7.9-52.7l-113.9,3l-7.9,50.3C770.8,613.5,738.2,630.8,753.8,634.2z" class="st2"/><path d="M596.5,212.7h477.2c10,0,18,8.1,18,18v321.4c0,10-8.1,18-18,18H596.5c-10,0-18-8.1-18-18V230.7	C578.4,220.8,586.5,212.7,596.5,212.7z" class="st4"/><rect width="478.7" height="267.8" x="595.7" y="231.8" class="st1"/><circle cx="835.1" cy="223.3" r="3" class="st0"/><path d="M1091.7,520.8v31.3c0,10-8.1,18-18,18c0,0,0,0,0,0H596.5c-10,0-18-8.1-18-18c0,0,0,0,0,0v-31.3H1091.7z" class="st4"/><polygon points="969 667.5 969 673.5 643 673.5 643 668.7 643.4 667.5 651.5 645.7 962.3 645.7" class="st4"/><path d="M1094.4,661.5c-0.6,2.5-2.8,5.2-7.9,7.8c-18.2,9.1-55.1-2.4-55.1-2.4s-28.5-4.8-28.5-17.6	c0.8-0.5,1.6-1,2.5-1.5c7.6-4,33-14,77.9,0.4c3.3,1,6.3,3,8.5,5.6C1093.7,656,1095.1,658.7,1094.4,661.5z" class="st4"/><path d="M1094.4,661.5c-22.3,8.5-42.1,9.2-62.4-5c-10.3-7.1-19.6-8.9-26.6-8.8c7.6-4,33-14,77.9,0.4	c3.3,1,6.3,3,8.5,5.6C1093.7,656,1095.1,658.7,1094.4,661.5z" class="st2"/><ellipse cx="1066.5" cy="654.1" class="st0" rx="7.9" ry="2.4"/><circle cx="835.1" cy="545.7" r="11.5" class="st0"/><polygon points="969 667.5 969 673.5 643 673.5 643 668.7 643.4 667.5" class="st2"/><rect width="208" height="242" x="108.6" y="159" class="st4"/><rect width="250" height="86" x="87.6" y="135" class="st1"/><rect width="250" height="86" x="87.6" y="237" class="st1"/><rect width="250" height="86" x="87.6" y="339" class="st1"/><rect width="16" height="16" x="271.6" y="150" class="st5"/><rect width="16" height="16" x="294.6" y="150" class="st6"/><rect width="16" height="16" x="317.6" y="150" class="st7"/><rect width="16" height="16" x="271.6" y="251" class="st5"/><rect width="16" height="16" x="294.6" y="251" class="st6"/><rect width="16" height="16" x="317.6" y="251" class="st7"/><rect width="16" height="16" x="271.6" y="352" class="st5"/><rect width="16" height="16" x="294.6" y="352" class="st6"/><rect width="16" height="16" x="317.6" y="352" class="st7"/><circle cx="316.6" cy="538" r="79" class="st4"/><rect width="24" height="43" x="280.6" y="600" class="st4"/><rect width="24" height="43" x="328.6" y="600" class="st4"/><ellipse cx="300.6" cy="643.5" class="st4" rx="20" ry="7.5"/><ellipse cx="348.6" cy="642.5" class="st4" rx="20" ry="7.5"/><circle cx="318.6" cy="518" r="27" class="st8"/><circle cx="318.6" cy="518" r="9" class="st1"/><path d="M240,464.5c-6.4-28.6,14-57.4,45.5-64.5s62.3,10.4,68.6,39s-14.5,39.1-46.1,46.1S246.4,493.1,240,464.5z" class="st7"/><ellipse cx="385.8" cy="510.8" class="st4" rx="39.5" ry="12.4" transform="matrix(0.9193 -0.3935 0.3935 0.9193 -169.8833 193.0218)"/><ellipse cx="237.8" cy="563.8" class="st4" rx="39.5" ry="12.4" transform="matrix(0.9193 -0.3935 0.3935 0.9193 -202.6763 139.0622)"/><path d="M362.6,561c0,7.7-19.9,23-42,23s-43-14.3-43-22s20.9-6,43-6S362.6,553.3,362.6,561z" class="st8"/></svg>