<?xml version="1.0" encoding="utf-8"?>
<!-- Generator: Adobe Illustrator 24.1.2, SVG Export Plug-In . SVG Version: 6.00 Build 0)  -->
<svg version="1.1" id="aa03ddf9-f8f2-4819-a4ce-be9b0a220741"
	 xmlns="http://www.w3.org/2000/svg" xmlns:xlink="http://www.w3.org/1999/xlink" x="0px" y="0px" viewBox="0 0 1119.6 699"
	 style="enable-background:new 0 0 1119.6 699;" xml:space="preserve">
<style type="text/css">
	.st0{fill:#F2F2F2;}
	.st1{fill:#3F3D56;}
	.st2{opacity:0.1;enable-background:new    ;}
	.st3{fill:none;stroke:#2F2E41;stroke-width:2;stroke-miterlimit:10;}
	.st4{fill:#2F2E41;}
	.st5{opacity:0.4;fill:#E85B3F;enable-background:new    ;}
	.st6{opacity:0.8;fill:#E85B3F;enable-background:new    ;}
	.st7{fill:#E85B3F;}
	.st8{fill:#FFFFFF;}
</style>
<circle class="st0" cx="292.6" cy="213" r="213"/>
<ellipse class="st1" cx="198.6" cy="424.5" rx="187" ry="25.4"/>
<ellipse class="st2" cx="198.6" cy="424.5" rx="157" ry="21.4"/>
<ellipse class="st1" cx="836.6" cy="660.5" rx="283" ry="38.5"/>
<ellipse class="st1" cx="310.6" cy="645.5" rx="170" ry="23.1"/>
<path class="st3" d="M462.6,626c90,23,263-30,282-90"/>
<path class="st3" d="M309.6,259c0,0,130-36,138,80s-107,149-17,172"/>
<path class="st3" d="M184,537.3c0,0,39.1-10.8,41.5,24c2.4,34.9-32.2,44.8-5.1,51.7"/>
<path class="st4" d="M778.7,563.2l-7.9,50.3c0,0-38.8,20.6-11.5,21.2s155.7,0,155.7,0s24.8,0-14.5-21.8l-7.9-52.7L778.7,563.2z"/>
<path class="st2" d="M753.8,634.2c6.2-5.5,17-11.3,17-11.3l7.9-50.3l113.9,0.1l7.9,49.6c9.2,5.1,14.9,9,18.2,12
	c5.1-1.2,10.6-5.4-18.2-21.4l-7.9-52.7l-113.9,3l-7.9,50.3C770.8,613.5,738.2,630.8,753.8,634.2z"/>
<path class="st4" d="M596.5,212.7h477.2c10,0,18,8.1,18,18v321.4c0,10-8.1,18-18,18H596.5c-10,0-18-8.1-18-18V230.7
	C578.4,220.8,586.5,212.7,596.5,212.7z"/>
<rect x="595.7" y="231.8" class="st1" width="478.7" height="267.8"/>
<circle class="st0" cx="835.1" cy="223.3" r="3"/>
<path class="st4" d="M1091.7,520.8v31.3c0,10-8.1,18-18,18c0,0,0,0,0,0H596.5c-10,0-18-8.1-18-18c0,0,0,0,0,0v-31.3H1091.7z"/>
<polygon class="st4" points="969,667.5 969,673.5 643,673.5 643,668.7 643.4,667.5 651.5,645.7 962.3,645.7 "/>
<path class="st4" d="M1094.4,661.5c-0.6,2.5-2.8,5.2-7.9,7.8c-18.2,9.1-55.1-2.4-55.1-2.4s-28.5-4.8-28.5-17.6
	c0.8-0.5,1.6-1,2.5-1.5c7.6-4,33-14,77.9,0.4c3.3,1,6.3,3,8.5,5.6C1093.7,656,1095.1,658.7,1094.4,661.5z"/>
<path class="st2" d="M1094.4,661.5c-22.3,8.5-42.1,9.2-62.4-5c-10.3-7.1-19.6-8.9-26.6-8.8c7.6-4,33-14,77.9,0.4
	c3.3,1,6.3,3,8.5,5.6C1093.7,656,1095.1,658.7,1094.4,661.5z"/>
<ellipse class="st0" cx="1066.5" cy="654.1" rx="7.9" ry="2.4"/>
<circle class="st0" cx="835.1" cy="545.7" r="11.5"/>
<polygon class="st2" points="969,667.5 969,673.5 643,673.5 643,668.7 643.4,667.5 "/>
<rect x="108.6" y="159" class="st4" width="208" height="242"/>
<rect x="87.6" y="135" class="st1" width="250" height="86"/>
<rect x="87.6" y="237" class="st1" width="250" height="86"/>
<rect x="87.6" y="339" class="st1" width="250" height="86"/>
<rect x="271.6" y="150" class="st5" width="16" height="16"/>
<rect x="294.6" y="150" class="st6" width="16" height="16"/>
<rect x="317.6" y="150" class="st7" width="16" height="16"/>
<rect x="271.6" y="251" class="st5" width="16" height="16"/>
<rect x="294.6" y="251" class="st6" width="16" height="16"/>
<rect x="317.6" y="251" class="st7" width="16" height="16"/>
<rect x="271.6" y="352" class="st5" width="16" height="16"/>
<rect x="294.6" y="352" class="st6" width="16" height="16"/>
<rect x="317.6" y="352" class="st7" width="16" height="16"/>
<circle class="st4" cx="316.6" cy="538" r="79"/>
<rect x="280.6" y="600" class="st4" width="24" height="43"/>
<rect x="328.6" y="600" class="st4" width="24" height="43"/>
<ellipse class="st4" cx="300.6" cy="643.5" rx="20" ry="7.5"/>
<ellipse class="st4" cx="348.6" cy="642.5" rx="20" ry="7.5"/>
<circle class="st8" cx="318.6" cy="518" r="27"/>
<circle class="st1" cx="318.6" cy="518" r="9"/>
<path class="st7" d="M240,464.5c-6.4-28.6,14-57.4,45.5-64.5s62.3,10.4,68.6,39s-14.5,39.1-46.1,46.1S246.4,493.1,240,464.5z"/>
<ellipse transform="matrix(0.9193 -0.3935 0.3935 0.9193 -169.8833 193.0218)" class="st4" cx="385.8" cy="510.8" rx="39.5" ry="12.4"/>
<ellipse transform="matrix(0.9193 -0.3935 0.3935 0.9193 -202.6763 139.0622)" class="st4" cx="237.8" cy="563.8" rx="39.5" ry="12.4"/>
<path class="st8" d="M362.6,561c0,7.7-19.9,23-42,23s-43-14.3-43-22s20.9-6,43-6S362.6,553.3,362.6,561z"/>
</svg>
