<?xml version="1.0" encoding="utf-8"?>
<!-- Generator: Adobe Illustrator 24.1.2, SVG Export Plug-In . SVG Version: 6.00 Build 0)  -->
<svg version="1.1" id="f241e7b9-92bc-4a39-8e1f-dd6f59c49ece"
	 xmlns="http://www.w3.org/2000/svg" xmlns:xlink="http://www.w3.org/1999/xlink" x="0px" y="0px" viewBox="0 0 878.6 552.2"
	 style="enable-background:new 0 0 878.6 552.2;" xml:space="preserve">
<style type="text/css">
	.st0{fill:#CCCCCC;}
	.st1{fill:#E6E6E6;}
	.st2{fill:#FFFFFF;}
	.st3{fill:#3F3D56;}
	.st4{fill:#2F2E41;}
	.st5{fill:#E85B3F;}
	.st6{fill:#F2F2F2;}
</style>
<path class="st0" d="M837.9,552.2H95.2c-13.8,0-24.9-11.1-24.9-24.9l0,0c269.2-31.3,533.3-31.3,792.4,0l0,0
	C862.8,541.1,851.6,552.2,837.9,552.2z"/>
<path class="st1" d="M862.8,528.8l-792.4-1.5l91.8-154.5l0.4-0.7V31.5c0-17.4,14.1-31.5,31.5-31.5c0,0,0,0,0,0h540.5
	c17.4,0,31.5,14.1,31.5,31.5c0,0,0,0,0,0v342.9L862.8,528.8z"/>
<path class="st2" d="M193.4,22c-5.7,0-10.2,4.6-10.3,10.3v310.5c0,5.7,4.6,10.2,10.3,10.3h546.4c5.7,0,10.2-4.6,10.3-10.3V32.2
	c0-5.7-4.6-10.2-10.3-10.3L193.4,22z"/>
<path class="st0" d="M197,394c-1.7,0-3.3,1-4,2.6l-28.3,61.5c-1,2.2,0,4.8,2.2,5.8c0.6,0.3,1.2,0.4,1.8,0.4h595.1
	c2.4,0,4.4-2,4.4-4.4c0-0.7-0.2-1.4-0.5-2l-30.8-61.5c-0.7-1.5-2.3-2.4-3.9-2.4L197,394z"/>
<circle class="st2" cx="464.3" cy="10.3" r="6.6"/>
<path class="st0" d="M405.9,476c-2,0-3.7,1.3-4.2,3.3l-7.1,26.4c-0.6,2.3,0.8,4.8,3.1,5.4c0.4,0.1,0.8,0.2,1.1,0.2h135
	c2.4,0,4.4-2,4.4-4.4c0-0.5-0.1-1-0.2-1.4l-9.1-26.4c-0.6-1.8-2.3-3-4.2-3L405.9,476z"/>
<polygon class="st0" points="766.1,366.9 766.1,372.8 162.2,372.8 162.6,372 162.6,366.9 "/>
<path class="st0" d="M691.5,380.3c-0.5,0-0.9,0.3-1,0.8l-1.7,6.4c-0.2,0.6,0.2,1.2,0.8,1.3c0.1,0,0.2,0,0.3,0h32.9
	c0.6,0,1.1-0.5,1.1-1.1c0-0.1,0-0.2-0.1-0.4l-2.2-6.4c-0.1-0.4-0.6-0.7-1-0.7L691.5,380.3z"/>
<path class="st0" d="M643.5,380.3c-0.5,0-0.9,0.3-1,0.8l-1.7,6.4c-0.2,0.6,0.2,1.2,0.8,1.3c0.1,0,0.2,0,0.3,0h32.9
	c0.6,0,1.1-0.5,1.1-1.1c0-0.1,0-0.2-0.1-0.4l-2.2-6.4c-0.1-0.4-0.6-0.7-1-0.7L643.5,380.3z"/>
<path class="st3" d="M504.5,421.1h2.6l-5.2-344.4h-2.6l0.1,6.9h-57.7l0.1-6.9h-2.6l-5.2,344.4h2.6l0.3-22.3h67.2L504.5,421.1z
	 M500.8,172.9h-60.4l0.6-42.1h59.2L500.8,172.9z M500.8,175.5l0.6,42.1h-61.8l0.6-42.1H500.8z M501.5,220.2l0.6,42.1H439l0.6-42.1
	H501.5z M502.1,264.8l0.6,42.1h-64.4l0.6-42.1H502.1z M502.8,309.5l0.6,42.1h-65.8l0.6-42.1H502.8z M499.5,86.2l0.6,42.1H441
	l0.6-42.1H499.5z M437,396.2l0.6-42.1h65.8l0.6,42.1H437z"/>
<circle class="st4" cx="457.8" cy="153.4" r="42"/>
<rect x="471.9" y="183.3" transform="matrix(0.984 -0.1781 0.1781 0.984 -27.0475 88.31)" class="st4" width="12.8" height="22.9"/>
<rect x="446.8" y="187.9" transform="matrix(0.984 -0.1781 0.1781 0.984 -28.2593 83.9083)" class="st4" width="12.8" height="22.9"/>
<ellipse transform="matrix(0.7631 -0.6463 0.6463 0.7631 -30.6078 343.3099)" class="st4" cx="453" cy="213.4" rx="10.6" ry="4"/>
<ellipse transform="matrix(0.7631 -0.6463 0.6463 0.7631 -21.9039 358.1501)" class="st4" cx="477.6" cy="209" rx="10.6" ry="4"/>
<circle class="st2" cx="454.9" cy="143.1" r="14.4"/>
<circle class="st3" cx="449" cy="137.9" r="4.8"/>
<path class="st5" d="M490.9,107.7c0.6-15.6-12.8-28.7-29.9-29.4s-31.6,11.3-32.2,26.9s11.3,19.1,28.5,19.8S490.3,123.2,490.9,107.7z
	"/>
<ellipse transform="matrix(0.2234 -0.9747 0.9747 0.2234 183.3671 521.5605)" class="st4" cx="419" cy="145.7" rx="6.6" ry="21"/>
<ellipse transform="matrix(0.2234 -0.9747 0.9747 0.2234 234.0425 612.5948)" class="st4" cx="501.5" cy="159.4" rx="6.6" ry="21"/>
<path class="st2" d="M469.3,169.9c0.9,5.2-2.5,10.2-7.7,11.1s-10.2-2.5-11.1-7.7l0,0c-0.9-5.2,3.1-7,8.3-8S468.4,164.7,469.3,169.9z
	"/>
<ellipse transform="matrix(0.357 -0.9341 0.9341 0.357 -75.4836 477.6066)" class="st4" cx="309.2" cy="293.6" rx="21.5" ry="6.8"/>
<ellipse transform="matrix(0.1602 -0.9871 0.9871 0.1602 -95.7152 539.8118)" class="st4" cx="269.4" cy="326.2" rx="43.1" ry="43.1"/>
<rect x="249.8" y="360" class="st4" width="13.1" height="23.4"/>
<rect x="275.9" y="360" class="st4" width="13.1" height="23.4"/>
<ellipse class="st4" cx="260.7" cy="383.7" rx="10.9" ry="4.1"/>
<ellipse class="st4" cx="286.8" cy="383.1" rx="10.9" ry="4.1"/>
<path class="st5" d="M227.6,286.1c-3.5-15.6,7.6-31.3,24.8-35.1s33.9,5.7,37.4,21.2s-7.9,21.3-25.1,25.2S231.1,301.7,227.6,286.1z"
	/>
<ellipse transform="matrix(0.4285 -0.9035 0.9035 0.4285 -150.4141 374.5312)" class="st4" cx="220.9" cy="306.2" rx="6.8" ry="21.5"/>
<circle class="st4" cx="82.9" cy="369.8" r="43.1"/>
<rect x="63.3" y="403.6" class="st4" width="13.1" height="23.4"/>
<rect x="89.4" y="403.6" class="st4" width="13.1" height="23.4"/>
<ellipse class="st4" cx="74.2" cy="427.3" rx="10.9" ry="4.1"/>
<ellipse class="st4" cx="100.3" cy="426.7" rx="10.9" ry="4.1"/>
<circle class="st2" cx="84" cy="358.9" r="14.7"/>
<circle class="st3" cx="84" cy="358.9" r="4.9"/>
<path class="st1" d="M41.1,329.7c-3.5-15.6,7.6-31.3,24.8-35.1s33.9,5.7,37.4,21.2s-7.9,21.3-25.1,25.2S44.6,345.3,41.1,329.7z"/>
<ellipse transform="matrix(0.357 -0.9341 0.9341 0.357 -129.9867 238.14)" class="st4" cx="108" cy="213.5" rx="21.5" ry="6.8"/>
<ellipse transform="matrix(0.3162 -0.9487 0.9487 0.3162 -186.7676 232.8994)" class="st4" cx="68.2" cy="246" rx="43.1" ry="43.1"/>
<rect x="48.6" y="279.8" class="st4" width="13.1" height="23.4"/>
<rect x="74.7" y="279.8" class="st4" width="13.1" height="23.4"/>
<ellipse class="st4" cx="59.5" cy="303.5" rx="10.9" ry="4.1"/>
<ellipse class="st4" cx="85.6" cy="303" rx="10.9" ry="4.1"/>
<circle class="st2" cx="69.3" cy="235.1" r="14.7"/>
<circle class="st3" cx="69.3" cy="235.1" r="4.9"/>
<path class="st5" d="M26.4,206c-3.5-15.6,7.6-31.3,24.8-35.1s33.9,5.7,37.4,21.2s-7.9,21.3-25.1,25.2S29.9,221.5,26.4,206z"/>
<ellipse transform="matrix(0.4285 -0.9035 0.9035 0.4285 -192.9811 146.9446)" class="st4" cx="19.7" cy="226" rx="6.8" ry="21.5"/>
<path class="st2" d="M47,261.5c0,4.2,10.9,12.5,22.9,12.5s23.3-11.9,23.3-16.1c0-4.2-11.3,0.8-23.3,0.8S47,257.3,47,261.5z"/>
<path class="st5" d="M110.5,81.6c-1.7,0-3,1.3-3,3v124c0,1.7,1.3,3,3,3h287c1.7,0,3-1.3,3-3v-124c0-1.7-1.3-3-3-3L110.5,81.6z"/>
<path id="b71acdfd-6a55-428e-917a-53f192cb0203" class="st2" d="M141.5,148.2c-4.7,0.1-8.4,3.9-8.4,8.6c0.1,4.6,3.8,8.3,8.4,8.4
	h229.3c4.7,0.1,8.6-3.7,8.6-8.4c0.1-4.7-3.7-8.6-8.4-8.6c-0.1,0-0.2,0-0.3,0H141.5z"/>
<path id="ad4fbcfa-41b0-45f9-a593-23b6dc3fe165" class="st2" d="M142.1,121c-4.7,0.1-8.4,3.9-8.4,8.6c0.1,4.6,3.8,8.3,8.4,8.4h114.5
	c4.7,0.1,8.6-3.7,8.6-8.3c0.1-4.7-3.7-8.6-8.3-8.6c0,0,0,0,0,0c-0.1,0-0.2,0-0.3,0H142.1z"/>
<ellipse transform="matrix(0.9341 -0.357 0.357 0.9341 -87.3854 271.8365)" class="st4" cx="692.6" cy="372.6" rx="6.8" ry="21.5"/>
<circle class="st4" cx="723.4" cy="414.1" r="43.1"/>
<polygon class="st4" points="743,447.9 730,447.9 732.5,476 743.1,473.1 "/>
<polygon class="st4" points="714.5,448 701.4,448 704,476.1 714.1,473.1 "/>
<ellipse transform="matrix(0.9973 -7.291862e-02 7.291862e-02 0.9973 -32.6415 52.545)" class="st4" cx="703.3" cy="473.3" rx="10.9" ry="4.1"/>
<circle class="st2" cx="722.3" cy="403.2" r="14.7"/>
<circle class="st3" cx="722.3" cy="403.2" r="4.9"/>
<ellipse transform="matrix(0.5941 -0.8044 0.8044 0.5941 3.0871 774.4154)" class="st4" cx="768.9" cy="384.1" rx="21.5" ry="6.8"/>
<path class="st2" d="M702.4,436.3c0-3.5,8.9-10.3,18.9-10.3s19.2,9.8,19.2,13.3s-9.3-0.7-19.2-0.7S702.4,439.8,702.4,436.3z"/>
<path class="st6" d="M765.2,374.1c3.5-15.6-7.6-31.3-24.8-35.1s-33.9,5.7-37.4,21.2s7.9,21.3,25.1,25.2S761.7,389.7,765.2,374.1z"/>
<ellipse transform="matrix(0.9973 -7.291862e-02 7.291862e-02 0.9973 -32.56 54.637)" class="st4" cx="732" cy="473.2" rx="10.9" ry="4.1"/>
</svg>
