<svg id="Layer_1" data-name="Layer 1" xmlns="http://www.w3.org/2000/svg" viewBox="0 0 384 384"><defs><style>.cls-1{fill:#fff;}</style></defs><path class="cls-1" d="M277.5,78h-171A28.53,28.53,0,0,0,78,106.5v171A28.53,28.53,0,0,0,106.5,306h171A28.53,28.53,0,0,0,306,277.5v-171A28.53,28.53,0,0,0,277.5,78Zm-171,19h171a9.51,9.51,0,0,1,9.5,9.5v67.32l-31.28-31.29a9.51,9.51,0,0,0-13.44,0l-66.9,66.91-24.16-24.16a9.51,9.51,0,0,0-13.44,0L97,226.07V106.5A9.51,9.51,0,0,1,106.5,97Zm171,190h-171a9.51,9.51,0,0,1-9.5-9.5V252.93l47.5-47.5,55,55A9.5,9.5,0,1,0,213,247l-24.16-24.15L249,162.69l38,38V277.5A9.51,9.51,0,0,1,277.5,287Z"/></svg>