<svg xmlns="http://www.w3.org/2000/svg" viewBox="0 0 243 145"><defs><style>.cls-1{fill:none}.cls-2{clip-path:url(#clip-path)}.cls-3{fill:#e6e6e6}.cls-4{fill:#f2f2f3}.cls-5{fill:#cccccb}.cls-6{fill:#fff}.cls-7{fill:#5c81c1}.cls-8{fill:#f9b6b8}.cls-9{fill:#2f2e41}.cls-10{fill:#e85b3e}.cls-11{fill:#a0616a}.cls-12{fill:#403d56}</style><clipPath id="clip-path"><rect width="243" height="145" class="cls-1"/></clipPath></defs><g id="Layer_2" data-name="Layer 2"><g id="Layer_1-2" data-name="Layer 1"><g class="cls-2"><path d="M94.35,129.92a8.2,8.2,0,0,1-4.08.33,8,8,0,0,1-3.72-1.7c-2.73-2.28-3.58-6-4.28-9.52l-2.06-10.29,4.31,3c3.1,2.13,6.28,4.32,8.42,7.4s3.09,7.29,1.36,10.62" class="cls-3"/><path d="M94,142.38a42.08,42.08,0,0,0,.58-9.57,15.09,15.09,0,0,0-2.92-7.89,13.16,13.16,0,0,0-3.38-3.06c-.34-.21-.65.32-.31.54a12.43,12.43,0,0,1,5,5.95A19.89,19.89,0,0,1,94,137c-.11,1.76-.35,3.5-.59,5.25a.31.31,0,0,0,0,.23.36.36,0,0,0,.19.15.31.31,0,0,0,.23,0A.32.32,0,0,0,94,142.38Z" class="cls-4"/><path d="M89.77,136.78a6,6,0,0,1-5.17,2.66c-2.62-.12-4.81-1.95-6.77-3.68L72,130.65l3.85-.18a23.22,23.22,0,0,1,8.24.59c2.64.85,5.07,2.9,5.55,5.62" class="cls-3"/><path d="M95.21,144.2c-2.1-3.7-4.54-7.82-8.89-9.13a10.06,10.06,0,0,0-3.74-.39c-.4,0-.3.65.1.61a9.3,9.3,0,0,1,6,1.58,15.5,15.5,0,0,1,4.1,4.4c.68,1,1.29,2.11,1.89,3.18.2.34.77.1.57-.25Z" class="cls-4"/><path d="M151.51,70.05l-45.79,37.8a2.86,2.86,0,0,1-2.07.63,2.81,2.81,0,0,1-1.9-1L82.44,84.28a2.79,2.79,0,0,1,.37-4l45.8-37.8a2.84,2.84,0,0,1,4,.37l19.3,23.2a2.79,2.79,0,0,1-.37,4Z" class="cls-5"/><path d="M149.68,68.91l-44.75,36.93a1.44,1.44,0,0,1-2-.19L84.46,83.5a1.43,1.43,0,0,1,.19-2l44.74-36.93a1.46,1.46,0,0,1,2.05.19l18.43,22.15a1.43,1.43,0,0,1-.19,2Z" class="cls-6"/><path d="M151.74,76.64l-9.2-.85,6.58-5.17,3.55,4.27a1,1,0,0,1,.25.57,1.12,1.12,0,0,1-.12.62,1.22,1.22,0,0,1-.27.33,1.09,1.09,0,0,1-.37.19A1,1,0,0,1,151.74,76.64Z" class="cls-5"/><path d="M133.26,60.23,110.62,78.91a1.29,1.29,0,0,1-.46.25,1.43,1.43,0,0,1-.54.06,1.57,1.57,0,0,1-.51-.15,1.49,1.49,0,0,1-.41-.34,1.26,1.26,0,0,1-.25-.47,1.19,1.19,0,0,1-.06-.53,1.45,1.45,0,0,1,.15-.5,1.53,1.53,0,0,1,.34-.42l22.63-18.68a1.42,1.42,0,0,1,.47-.25,1.63,1.63,0,0,1,.53-.06A1.37,1.37,0,0,1,133,58a1.3,1.3,0,0,1,.41.33,1.42,1.42,0,0,1,.25.47,1.19,1.19,0,0,1,.06.53,1.5,1.5,0,0,1-.15.51A1.65,1.65,0,0,1,133.26,60.23Z" class="cls-5"/><path d="M122.18,61.86,106.92,74.45a1.31,1.31,0,0,1-1,.31,1.36,1.36,0,0,1-.75-2.4l15.27-12.6a1.39,1.39,0,0,1,1-.31,1.37,1.37,0,0,1,1.23,1.48A1.38,1.38,0,0,1,122.18,61.86Z" class="cls-5"/><path d="M98.53,87.62a4.26,4.26,0,1,0-4.28-4.25A4.26,4.26,0,0,0,98.53,87.62Z" class="cls-7"/><path d="M132.52,74.84a1.37,1.37,0,1,0-1.37-1.36A1.37,1.37,0,0,0,132.52,74.84Z" class="cls-3"/><path d="M136.2,71.8a1.37,1.37,0,1,0-1.36-1.37A1.37,1.37,0,0,0,136.2,71.8Z" class="cls-3"/><path d="M139.89,68.76a1.37,1.37,0,1,0-1.37-1.37A1.37,1.37,0,0,0,139.89,68.76Z" class="cls-3"/><path d="M118.09,141.83h3.14l1.5-12.06h-4.64Z" class="cls-8"/><path d="M117.29,140.81h6.19a4.08,4.08,0,0,1,1.5.29,3.85,3.85,0,0,1,1.28.86,3.81,3.81,0,0,1,.86,1.27,4.05,4.05,0,0,1,.3,1.5v.13H117.29Z" class="cls-9"/><path d="M106.83,141.83H110l1.49-12.06h-4.63Z" class="cls-8"/><path d="M106,140.81h6.18A3.86,3.86,0,0,1,115,142a3.94,3.94,0,0,1,.85,1.27,3.86,3.86,0,0,1,.3,1.5v.13H106Z" class="cls-9"/><path d="M110,138.14h-2.67a1.17,1.17,0,0,1-.8-.32,1.13,1.13,0,0,1-.35-.79l-.09-2.32c-.67-18.6-1.37-37.83,3-46.48l0-.07,14.3-.51,2.88,26.24a11.48,11.48,0,0,1-.14,3.36l-3.79,19.92a1.22,1.22,0,0,1-.42.69,1.1,1.1,0,0,1-.76.24l-3-.09a1.35,1.35,0,0,1-.45-.11,1.29,1.29,0,0,1-.37-.28,1,1,0,0,1-.23-.41,1,1,0,0,1,0-.46l2.35-18.43a6.32,6.32,0,0,0-.21-2.37l-2.93-10.2a.39.39,0,0,0-.15-.21.39.39,0,0,0-.6.26l-4.37,31.35a1.2,1.2,0,0,1-.39.71A1.16,1.16,0,0,1,110,138.14Z" class="cls-9"/><path d="M111.69,61.41a6.26,6.26,0,1,0-6.29-6.26A6.28,6.28,0,0,0,111.69,61.41Z" class="cls-8"/><path d="M122.69,89.58h-13a1.12,1.12,0,0,1-.48-.1,1.24,1.24,0,0,1-.39-.29,1.22,1.22,0,0,1-.24-.43,1.16,1.16,0,0,1,0-.49l.64-4.38-3.77-10.35a7.53,7.53,0,0,1,.64-6.53,7.65,7.65,0,0,1,13.45.68l.83,1.76,3.5,18.78a1.21,1.21,0,0,1,0,.5,1.1,1.1,0,0,1-.23.44,1.23,1.23,0,0,1-.4.31,1.16,1.16,0,0,1-.49.1Z" class="cls-10"/><path d="M95.22,100.58a2.76,2.76,0,0,0,1.08-.51,2.79,2.79,0,0,0,.75-.92,2.7,2.7,0,0,0,.08-2.31L107.27,74l-5.8-1.45L93.32,95.45a2.75,2.75,0,0,0,0,4.88,2.75,2.75,0,0,0,2,.25Z" class="cls-8"/><path d="M105.9,78.1l-5.65-2.63a1.07,1.07,0,0,1-.41-.32,1.2,1.2,0,0,1-.28-1,1.28,1.28,0,0,1,.19-.49l3.43-5.16a3.42,3.42,0,0,1,6.19,2.92l-1.77,5.9a1.29,1.29,0,0,1-.25.46,1.31,1.31,0,0,1-.43.31,1.26,1.26,0,0,1-.51.11,1.13,1.13,0,0,1-.51-.12Z" class="cls-10"/><path d="M137.52,41.88a2.62,2.62,0,0,1,.11,1.18,2.7,2.7,0,0,1-.4,1.11,2.84,2.84,0,0,1-.84.85,3,3,0,0,1-1.12.41L120.78,65.78l-4.22-4.21,15.56-18.69A2.77,2.77,0,0,1,134.38,40a2.78,2.78,0,0,1,1.93.35A2.7,2.7,0,0,1,137.52,41.88Z" class="cls-8"/><path d="M124.13,63.39a1.14,1.14,0,0,1,0,.52,1.13,1.13,0,0,1-.26.45l-4.19,4.55a3.43,3.43,0,0,1-6.2-1.26A3.39,3.39,0,0,1,114,65.1l2.69-5.58a1.07,1.07,0,0,1,.32-.41,1.4,1.4,0,0,1,.47-.24,1.15,1.15,0,0,1,.52,0,1.24,1.24,0,0,1,.49.2l5.16,3.48a1.19,1.19,0,0,1,.36.38A1.25,1.25,0,0,1,124.13,63.39Z" class="cls-10"/><path d="M120,52.53a6.36,6.36,0,0,0-.23-1.68,7.6,7.6,0,0,0-8.51-5.4A8.1,8.1,0,0,0,101,52l-3,19.44h16.39l2.64-17a7.57,7.57,0,0,0,.07-1.9Z" class="cls-9"/><path d="M140.32,145h-54a.29.29,0,0,1-.18-.07.26.26,0,0,1-.07-.19.22.22,0,0,1,.07-.17.25.25,0,0,1,.18-.08h54a.25.25,0,0,1,.18.08.23.23,0,0,1,.08.17.27.27,0,0,1-.08.19A.29.29,0,0,1,140.32,145Z" class="cls-5"/><path d="M194.75,19.8a2.79,2.79,0,0,1,1.11.14,2.63,2.63,0,0,1,.94.59,2.51,2.51,0,0,1,.61.93,2.58,2.58,0,0,1,.15,1.1l8.38,3.67-4,2.57-7.34-3.88a2.58,2.58,0,0,1,.15-5.12Z" class="cls-11"/><path d="M228.53,15.23A6.27,6.27,0,1,0,222.24,9,6.28,6.28,0,0,0,228.53,15.23Z" class="cls-11"/><path d="M217.15,98.26H214l-1.49-12.05h4.63Z" class="cls-11"/><path d="M218,101.29H207.83v-.12a3.83,3.83,0,0,1,.3-1.5,3.88,3.88,0,0,1,2.13-2.13,3.91,3.91,0,0,1,1.51-.3H218Z" class="cls-9"/><path d="M230.21,98.26h-3.14l-1.49-12.05h4.63Z" class="cls-11"/><path d="M231,101.29H220.89v-.12a3.83,3.83,0,0,1,.3-1.5,3.88,3.88,0,0,1,2.13-2.13,3.91,3.91,0,0,1,1.51-.3H231Z" class="cls-9"/><path d="M230.06,95.7h-.14l-4.6-.57a1.15,1.15,0,0,1-.7-.35,1.16,1.16,0,0,1-.3-.73L223,64a.43.43,0,0,0-.1-.24.4.4,0,0,0-.21-.12.35.35,0,0,0-.25,0,.37.37,0,0,0-.18.17L218.8,75.29l-.7,18.35a1.16,1.16,0,0,1-.12.45,1,1,0,0,1-.29.37,1.11,1.11,0,0,1-.41.23,1.06,1.06,0,0,1-.47,0l-4-.46a1.15,1.15,0,0,1-.73-.39,1.16,1.16,0,0,1-.29-.78l.34-17.26,2.7-27.11H215l16.39.63-.15,45.18a1.14,1.14,0,0,1-1.15,1.15Z" class="cls-9"/><path d="M230.74,51.84h0l-16.51-.43a1.12,1.12,0,0,1-.47-.11,1.15,1.15,0,0,1-.61-.71,1.3,1.3,0,0,1,0-.48l3.17-23.25A11.21,11.21,0,0,1,221,19a9.75,9.75,0,0,1,3.83-1.57,10,10,0,0,1,4.14.15c5.76,1.46,9.22,7.62,7.71,13.74L231.86,51a1.16,1.16,0,0,1-.41.63A1.13,1.13,0,0,1,230.74,51.84Z" class="cls-12"/><path d="M209.08,33.38a5.54,5.54,0,0,1-3.06-.91l-9.63-6.29a1.17,1.17,0,0,1-.35-.35,1.2,1.2,0,0,1-.16-.47,1.06,1.06,0,0,1,.05-.5,1.24,1.24,0,0,1,.25-.43l1.45-1.52a1.16,1.16,0,0,1,.59-.33,1.21,1.21,0,0,1,.68.05l10.75,4.27,10-7.09a4.27,4.27,0,0,1,1.56-.68,4.42,4.42,0,0,1,1.7,0,4.07,4.07,0,0,1,2.7,1.93,4.09,4.09,0,0,1-.4,4.77,4.11,4.11,0,0,1-1.34,1l-12.32,6A5.68,5.68,0,0,1,209.08,33.38Z" class="cls-12"/><path d="M230.71,15c1.08.25,2.37.45,3.14-.34a4.29,4.29,0,0,0,.36-.48l1-1.53a12.08,12.08,0,0,0,1.88-3.72,6.15,6.15,0,0,0,.08-2.38,6,6,0,0,0-.84-2.23,6.15,6.15,0,0,0-1.64-1.73,5.91,5.91,0,0,0-2.19-1A15.91,15.91,0,0,0,228,.76,7.62,7.62,0,0,1,223.4,0c.08.37.51,2,.51,2s-1.93,1.76-2.32,2.2a3.75,3.75,0,0,1,1.62-.31,3.67,3.67,0,0,1,1.58.44A3.55,3.55,0,0,1,226,5.43a3.8,3.8,0,0,1,.63,1.51,4.25,4.25,0,0,0,.44,2,4.2,4.2,0,0,0,1.63,1,4,4,0,0,1,1.76,4.86Z" class="cls-9"/><path d="M223.16,54.09H171a2.48,2.48,0,0,1-1.75-.73,2.45,2.45,0,0,1-.72-1.73V25.22a2.47,2.47,0,0,1,.72-1.74,2.51,2.51,0,0,1,1.75-.72h52.13a2.46,2.46,0,0,1,2.47,2.46V51.63a2.48,2.48,0,0,1-2.47,2.46Z" class="cls-5"/><path d="M222.56,52.3H171.63a1.27,1.27,0,0,1-.9-.38,1.24,1.24,0,0,1-.37-.89V25.82a1.26,1.26,0,0,1,1.27-1.27h50.93a1.28,1.28,0,0,1,1.28,1.27V51a1.25,1.25,0,0,1-.38.89A1.27,1.27,0,0,1,222.56,52.3Z" class="cls-6"/><path d="M219.61,58.66,213.88,53l7.35.18V58a.92.92,0,0,1-.16.53.87.87,0,0,1-.43.35,1.1,1.1,0,0,1-.36.07,1,1,0,0,1-.36-.07A1,1,0,0,1,219.61,58.66Z" class="cls-5"/><path d="M216.36,37.29H190.6a1.17,1.17,0,0,1-.85-.35,1.18,1.18,0,0,1,0-1.68,1.17,1.17,0,0,1,.85-.35h25.76a1.19,1.19,0,1,1,0,2.38Z" class="cls-5"/><path d="M208,32.22H190.6a1.18,1.18,0,0,1-.46-.09,1.16,1.16,0,0,1-.39-.26,1,1,0,0,1-.26-.39,1.17,1.17,0,0,1-.09-.45,1.22,1.22,0,0,1,.09-.46,1.11,1.11,0,0,1,.26-.39,1.16,1.16,0,0,1,.39-.26,1.18,1.18,0,0,1,.46-.09H208a1.21,1.21,0,0,1,.85.35,1.23,1.23,0,0,1,.35.85,1.21,1.21,0,0,1-.35.84A1.17,1.17,0,0,1,208,32.22Z" class="cls-5"/><path d="M179.93,37.29a3.73,3.73,0,1,0-3.75-3.73A3.73,3.73,0,0,0,179.93,37.29Z" class="cls-10"/><path d="M208.42,47a1.19,1.19,0,1,0-1.2-1.19A1.19,1.19,0,0,0,208.42,47Z" class="cls-3"/><path d="M212.62,47a1.19,1.19,0,1,0-1.2-1.19A1.19,1.19,0,0,0,212.62,47Z" class="cls-3"/><path d="M216.81,47a1.19,1.19,0,1,0-1.2-1.19A1.19,1.19,0,0,0,216.81,47Z" class="cls-3"/><path d="M222.35,51a2.78,2.78,0,0,1,.36-1.06,2.59,2.59,0,0,1,.78-.8,2.75,2.75,0,0,1,1-.4,2.61,2.61,0,0,1,1.11.08L231,41.36l1.71,4.42-5.32,6.36a2.54,2.54,0,0,1-1.2,1.38,2.59,2.59,0,0,1-3.8-2.57Z" class="cls-11"/><path d="M228.45,50.55h-.25a1.11,1.11,0,0,1-.47-.17,1.17,1.17,0,0,1-.35-.35l-1.13-1.78a1.15,1.15,0,0,1-.17-.65,1.08,1.08,0,0,1,.22-.64l6.81-9.32-4.43-11.37A4.08,4.08,0,0,1,230.94,21a4,4,0,0,1,1.78-.32,4.26,4.26,0,0,1,1.75.47,4.33,4.33,0,0,1,1.38,1.17,4.18,4.18,0,0,1,.74,1.65l2.75,13.35a5.55,5.55,0,0,1-.17,2.83,5.4,5.4,0,0,1-1.54,2.39l-8.5,7.73A1.17,1.17,0,0,1,228.45,50.55Z" class="cls-12"/><path d="M242.74,101.91h-54a.27.27,0,0,1-.19-.08.27.27,0,0,1-.07-.18.29.29,0,0,1,.07-.18.26.26,0,0,1,.19-.07h54a.26.26,0,0,1,.19.07.29.29,0,0,1,.07.18.27.27,0,0,1-.07.18A.27.27,0,0,1,242.74,101.91Z" class="cls-5"/><path d="M65.71,38.45H13.58A2.46,2.46,0,0,1,11.11,36V9.58a2.46,2.46,0,0,1,2.47-2.46H65.71a2.51,2.51,0,0,1,1.75.72,2.47,2.47,0,0,1,.72,1.74V36a2.46,2.46,0,0,1-2.47,2.46Z" class="cls-5"/><path d="M65.11,36.66H14.18a1.27,1.27,0,0,1-.9-.38,1.25,1.25,0,0,1-.38-.89V10.18a1.28,1.28,0,0,1,1.28-1.27H65.11a1.26,1.26,0,0,1,1.27,1.27V35.39a1.24,1.24,0,0,1-.37.89A1.27,1.27,0,0,1,65.11,36.66Z" class="cls-6"/><path d="M62.16,43l-5.73-5.7,7.35.18v4.86a1,1,0,0,1-.16.52.92.92,0,0,1-.43.35,1.11,1.11,0,0,1-.37.07,1.15,1.15,0,0,1-.36-.07A1,1,0,0,1,62.16,43Z" class="cls-5"/><path d="M58.91,21.65H33.14a1.21,1.21,0,0,1-1.2-1.19,1.21,1.21,0,0,1,1.2-1.2H58.91a1.2,1.2,0,0,1,1.2,1.2,1.21,1.21,0,0,1-.35.84A1.19,1.19,0,0,1,58.91,21.65Z" class="cls-5"/><path d="M50.52,16.58H33.14a1.21,1.21,0,0,1-.84-.35,1.17,1.17,0,0,1-.36-.84,1.21,1.21,0,0,1,1.2-1.2H50.52a1.2,1.2,0,0,1,1.2,1.2,1.21,1.21,0,0,1-.35.84A1.23,1.23,0,0,1,50.52,16.58Z" class="cls-5"/><path d="M22.48,21.65a3.73,3.73,0,1,0-3.75-3.73A3.73,3.73,0,0,0,22.48,21.65Z" class="cls-10"/><path d="M51,31.37a1.2,1.2,0,1,0-1.2-1.19A1.19,1.19,0,0,0,51,31.37Z" class="cls-3"/><path d="M55.16,31.37A1.2,1.2,0,1,0,54,30.18,1.19,1.19,0,0,0,55.16,31.37Z" class="cls-3"/><path d="M59.36,31.37a1.2,1.2,0,1,0-1.2-1.19A1.19,1.19,0,0,0,59.36,31.37Z" class="cls-3"/><path d="M63.55,4.58a2.56,2.56,0,0,0-.95.6,2.61,2.61,0,0,0-.6.93,2.51,2.51,0,0,0,.19,2.16l-6,6.89,4.71.62,5-6.63a2.58,2.58,0,0,0-2.33-4.57Z" class="cls-8"/><path d="M23.51,7.34a2.74,2.74,0,0,1,.14,1.1,2.57,2.57,0,0,1-1.1,1.88,2.74,2.74,0,0,1-1,.42l-1.49,9-3.49-3.22,1.95-8A2.54,2.54,0,0,1,19,6.7a2.59,2.59,0,0,1,1.54-1,2.59,2.59,0,0,1,3,1.66Z" class="cls-8"/><path d="M32.88,98.26H36l1.49-12.05H32.88Z" class="cls-8"/><path d="M32.08,97.24h6.18a3.91,3.91,0,0,1,1.51.3,3.88,3.88,0,0,1,2.13,2.13,3.83,3.83,0,0,1,.3,1.5v.12H32.08Z" class="cls-9"/><path d="M16.75,98.26h3.14l1.49-12.05H16.75Z" class="cls-8"/><path d="M16,97.24h6.18a3.91,3.91,0,0,1,1.51.3,4,4,0,0,1,1.27.85,4,4,0,0,1,.86,1.28,3.83,3.83,0,0,1,.3,1.5v.12H16Z" class="cls-9"/><path d="M32.22,15.94a6.27,6.27,0,1,0-6.29-6.26A6.28,6.28,0,0,0,32.22,15.94Z" class="cls-8"/><path d="M31.47,94.26l-.52-33a.39.39,0,0,0-.1-.25.37.37,0,0,0-.24-.12.42.42,0,0,0-.27.06.44.44,0,0,0-.15.23L21.67,93.45a1.21,1.21,0,0,1-.43.65,1.18,1.18,0,0,1-.74.23l-4.69-.19a1.25,1.25,0,0,1-.46-.12,1.16,1.16,0,0,1-.37-.29,1.06,1.06,0,0,1-.22-.42,1,1,0,0,1,0-.46L22,51.37l0-.12,20.14,1h.14L37.93,94.33a1.22,1.22,0,0,1-.37.75,1.13,1.13,0,0,1-.78.31H32.62a1.18,1.18,0,0,1-.81-.33A1.15,1.15,0,0,1,31.47,94.26Z" class="cls-9"/><path d="M47.38,55,18.15,52.61a1.23,1.23,0,0,1-.5-.16,1.12,1.12,0,0,1-.38-.37,1,1,0,0,1-.18-.49,1.17,1.17,0,0,1,.07-.52l4.6-12.67.26-15a4.15,4.15,0,0,1,4.27-4.05l1.95-1.75h7.12l.62.81,5,.75a4.17,4.17,0,0,1,2.32,1.2,4.07,4.07,0,0,1,1.15,2.33L48.62,53.7a1.11,1.11,0,0,1,0,.48,1.22,1.22,0,0,1-.24.43,1.14,1.14,0,0,1-.39.29,1.1,1.1,0,0,1-.47.1Z" class="cls-9"/><path d="M41.68,20.57l12.47-3.63,5.64-7.4a1.24,1.24,0,0,1,.63-.42,1.18,1.18,0,0,1,.74.06l3.53,1.5a1.08,1.08,0,0,1,.39.28,1.16,1.16,0,0,1,.25.41,1.13,1.13,0,0,1,0,.48,1.25,1.25,0,0,1-.15.46L61,19.52a6.45,6.45,0,0,1-3,2.65L43.37,28.63Z" class="cls-9"/><path d="M17.77,26a5.27,5.27,0,0,1-2.2-4.73l.54-7.22a1.22,1.22,0,0,1,.37-.76,1.17,1.17,0,0,1,.78-.3h0l4.13,0a1.18,1.18,0,0,1,.49.12,1.2,1.2,0,0,1,.4.31,1.22,1.22,0,0,1,.22.44,1.06,1.06,0,0,1,0,.5l-.76,3.9,5.47,2.3-4.61,8.92Z" class="cls-9"/><path d="M35.88,2.17S29.3-1.36,25.72,2.8s1.37,10.67,1.37,10.67l7.05.89s.26-4.78,1.93-4.68S43,3.74,35.88,2.17Z" class="cls-9"/><path d="M54.28,101.65H.26a.26.26,0,0,1-.19-.07A.31.31,0,0,1,0,101.4a.27.27,0,0,1,.07-.18.27.27,0,0,1,.19-.08h54a.27.27,0,0,1,.19.08.27.27,0,0,1,.07.18.31.31,0,0,1-.07.18A.26.26,0,0,1,54.28,101.65Z" class="cls-5"/></g></g></g></svg>