<svg viewBox="0 0 238 126" xmlns="http://www.w3.org/2000/svg">
  <defs>
    <style>.cls-1 {fill: none;}

    .cls-2 {clip-path: url(#clip-path);}

    .cls-3 {fill: #E6E6E6;}

    .cls-4 {fill: #F3755C;}

    .cls-5 {fill: #5C81C1;}

    .cls-6 {fill: #F9B6B8;}

    .cls-7 {fill: #2F2E41;}

    .cls-8 {fill: #E85B3E;}

    .cls-9 {fill: #CCCCCB;}

    .cls-10 {fill: #FFF;}</style>
    <clipPath id="clip-path">
      <rect class="cls-1" height="126" width="238"/>
    </clipPath>
  </defs>
  <g data-name="Layer 2" id="Layer_2">
    <g data-name="Layer 1" id="Layer_1-2">
      <g class="cls-2">
        <path class="cls-3" d="M236.46,125.67H103.94a1.54,1.54,0,0,1-1.09-.45,1.5,1.5,0,0,1-.45-1.08V1.53A1.54,1.54,0,0,1,103.94,0H236.46A1.54,1.54,0,0,1,238,1.53V124.14a1.5,1.5,0,0,1-.45,1.08,1.54,1.54,0,0,1-1.09.45ZM103.94.61a.91.91,0,0,0-.65.27.9.9,0,0,0-.28.65V124.14a.9.9,0,0,0,.28.65.91.91,0,0,0,.65.27H236.46a.93.93,0,0,0,.65-.27.89.89,0,0,0,.27-.65V1.53a.91.91,0,0,0-.27-.65,1,1,0,0,0-.65-.27Z"/>
        <path class="cls-3" d="M166.56,31.86a1.05,1.05,0,0,0-.74.3,1,1,0,0,0,0,1.48,1.05,1.05,0,0,0,.74.3h57.38a1.09,1.09,0,0,0,.74-.3,1.06,1.06,0,0,0,0-1.48,1.09,1.09,0,0,0-.74-.3Z"/>
        <path class="cls-3" d="M166.56,38.11a1.06,1.06,0,0,0-1.05,1,1,1,0,0,0,.31.74,1.05,1.05,0,0,0,.74.3h29.29a1.07,1.07,0,0,0,.74-.3,1,1,0,0,0,.31-.74,1,1,0,0,0-.31-.73,1,1,0,0,0-.74-.31Z"/>
        <path class="cls-3" d="M116.4,68.37a1,1,0,0,0,0,2.08H224a1.05,1.05,0,0,0,.74-.3,1,1,0,0,0,0-1.48,1.05,1.05,0,0,0-.74-.3Z"/>
        <path class="cls-3" d="M116.4,74.62a1,1,0,0,0,0,2.08h79.51a1.09,1.09,0,0,0,.74-.3,1.06,1.06,0,0,0,0-1.48,1.09,1.09,0,0,0-.74-.3Z"/>
        <path class="cls-3" d="M116.4,80.73a1,1,0,0,0,0,2.08H224a1.05,1.05,0,0,0,.74-.3,1,1,0,0,0,0-1.48,1.05,1.05,0,0,0-.74-.3Z"/>
        <path class="cls-3" d="M116.4,87a1,1,0,0,0,0,2.08h79.51a1.09,1.09,0,0,0,.74-.3A1.07,1.07,0,0,0,197,88a1,1,0,0,0-1-1Z"/>
        <path class="cls-4" d="M152.05,53.81H68.87a1.51,1.51,0,0,1-1.08-.45,1.55,1.55,0,0,1-.46-1.09V15.91a1.55,1.55,0,0,1,1.54-1.54h83.18a1.58,1.58,0,0,1,1.09.45,1.55,1.55,0,0,1,.46,1.09V52.27a1.55,1.55,0,0,1-1.55,1.54Z"/>
        <path class="cls-5" d="M223.33,111.3H191.8a1.54,1.54,0,0,1-1.54-1.53v-5a1.54,1.54,0,0,1,1.54-1.54h31.53a1.54,1.54,0,0,1,1.54,1.54v5a1.54,1.54,0,0,1-1.54,1.53Z"/>
        <path class="cls-6" d="M36.48,61.55a3.19,3.19,0,0,1-.89-4.22,3.51,3.51,0,0,1,.29-.36L36,30.1l4,.75.18,26.42A3.13,3.13,0,0,1,40.51,61,2.77,2.77,0,0,1,36.48,61.55Z"/>
        <path class="cls-6" d="M57.33,121.68h4.13l2-15.88h-6.1Z"/>
        <path class="cls-7" d="M56.28,120.34h8.14a5.17,5.17,0,0,1,5.18,5.17v.16H56.28Z"/>
        <path class="cls-6" d="M18.9,121.68H23l2-15.88H18.9Z"/>
        <path class="cls-7" d="M17.85,120.34H26a5.17,5.17,0,0,1,5.18,5.17v.16H17.85Z"/>
        <path class="cls-7" d="M57.09,117.25l-.35-2.07a1.66,1.66,0,0,1-.85-.69,3.12,3.12,0,0,1-.18-2.45L52.92,88.58l-14.56-15L29,96l-3.69,17.76v2.56l-7.38,1,.33-2.42a1.4,1.4,0,0,1-.67-.6,4.14,4.14,0,0,1,0-3.24l0-.06,0-.22c0-.15.1-14.65,4.43-21.84l4.33-21.82a8,8,0,0,1,.35-5.12c1-3,3.82-7.79,11.51-13.74l0,0h0c.09,0,8.57-1.7,13,4l0,0v.05c0,.35,0,8.57-.66,10.4L61,81.73c.21.22,2,2.31,1.38,7.81l1.68,18.77c.19.36,1.93,3.81,0,5.17l.35,2.37Z"/>
        <path class="cls-8" d="M39.68,38.41a6.54,6.54,0,0,1-6.15-3.86l0-.07,3.92-8.27a4.56,4.56,0,0,1,8.35.26,4.5,4.5,0,0,1,0,3.42L42.35,38l-.06,0A8.58,8.58,0,0,1,39.68,38.41Z"/>
        <path class="cls-8" d="M50.53,54.8,38.18,49l1.7-20.63L43,24.6l.6-.13a15.78,15.78,0,0,1,8.29.46l.06,0L57,35.75s3.7,6.5-1.37,9.9Z"/>
        <path class="cls-6" d="M67.5,48.23a2.1,2.1,0,0,0-.42.22l-13-5.93-.33-3.45-5.29-.18v6.16a2.3,2.3,0,0,0,1.66,2.21l15.62,4.55a3,3,0,0,0,1,1.52,3.09,3.09,0,0,0,1.66.7,3,3,0,0,0,1.77-.37,3,3,0,0,0-2.62-5.43Z"/>
        <path class="cls-8" d="M51.59,40.54a6.61,6.61,0,0,1-4.77-2.11l0,0,1.09-9.08a4.56,4.56,0,0,1,8-2.39,4.5,4.5,0,0,1,1.06,3.26l-.64,8.74-.05,0A8.22,8.22,0,0,1,51.59,40.54Z"/>
        <path class="cls-6" d="M55.55,17.41a8.27,8.27,0,1,0-11.23,3.28A8.22,8.22,0,0,0,55.55,17.41Z"/>
        <path class="cls-7" d="M56.72,9.09A7,7,0,0,0,52.1,3.93a10,10,0,0,0-7.1.38c-.37.16-.74.33-1.09.52a5.06,5.06,0,0,0-4.66-2.35C37,2.59,35,3.76,33.11,4.86s-4,2.2-6.21,2.15c-4-.1-7-3.8-10.84-4.9A8.65,8.65,0,0,0,5,10.31a8.55,8.55,0,0,0,1.51,5c1.65-2.94,5.51-3.93,8.86-3.53s6.48,1.87,9.76,2.65,7.09.74,9.63-1.47c1.44-1.25,2.29-3,3.54-4.49a5.91,5.91,0,0,1,3.3-2,10,10,0,0,0-2.71,4,8.27,8.27,0,0,0,1.6,8.33c2.2,2.31,5.66,2.93,8.86,2.89l.07-.07c-1-1.46-1.76-3.48-.68-4.87s3.17-1.17,4.8-1.78A5.41,5.41,0,0,0,56.72,9.09Z"/>
        <path class="cls-9" d="M79.06,126H.29a.32.32,0,0,1-.21-.08.32.32,0,0,1-.08-.21.3.3,0,0,1,.08-.2.32.32,0,0,1,.21-.08H79.06a.32.32,0,0,1,.21.08.3.3,0,0,1,.08.2.27.27,0,0,1-.29.29Z"/>
        <path class="cls-10" d="M106.73,27.13c-.36,0-.65.47-.65,1s.29,1,.65,1h30.84c.36,0,.65-.47.65-1s-.29-1-.65-1Z"/>
        <path class="cls-10" d="M106.73,33.17c-.36,0-.65.46-.65,1s.29,1,.65,1h30.84c.36,0,.65-.47.65-1s-.29-1-.65-1Z"/>
        <path class="cls-10" d="M106.73,39.13c-.36,0-.65.47-.65,1s.29,1,.65,1H120c.36,0,.65-.47.65-1s-.29-1-.65-1Z"/>
        <path class="cls-10" d="M91.07,42.43a8.34,8.34,0,1,0-8.36-8.34A8.35,8.35,0,0,0,91.07,42.43Z"/>
      </g>
    </g>
  </g>
</svg>
