<svg xmlns="http://www.w3.org/2000/svg" viewBox="0 0 192 144"><defs><style>.cls-1{fill:none}.cls-2{clip-path:url(#clip-path)}.cls-3{fill:#f2f2f3}.cls-4{fill:#fff}.cls-5{fill:#403d56}.cls-6{fill:#f3755c}.cls-7{fill:#5c81c1}.cls-8{fill:#e6e6e6}.cls-9{fill:#a0616a}.cls-10{fill:#2f2e41}</style><clipPath id="clip-path"><rect width="192" height="144" class="cls-1"/></clipPath></defs><g id="Layer_2" data-name="Layer 2"><g id="Layer_1-2" data-name="Layer 1"><g class="cls-2"><path d="M156.64,102.63H4a3.93,3.93,0,0,1-2.78-1.14A3.86,3.86,0,0,1,.06,98.73V5.41A2.87,2.87,0,0,1,2.93,2.55H157.64a3,3,0,0,1,2.07.85,2.92,2.92,0,0,1,.86,2.06V98.73a3.91,3.91,0,0,1-1.15,2.76A4,4,0,0,1,156.64,102.63Z" class="cls-3"/><path d="M151.71,97.71H9.43A3.66,3.66,0,0,1,5.65,94.2V12.93a2.72,2.72,0,0,1,2.8-2.61H152.64A2.76,2.76,0,0,1,155.49,13V94.2A3.66,3.66,0,0,1,151.71,97.71Z" class="cls-4"/><path d="M160.52,5.89H0v-2A3.87,3.87,0,0,1,1.16,1.15,3.93,3.93,0,0,1,3.94,0H156.57a3.94,3.94,0,0,1,4,3.91Z" class="cls-5"/><path d="M7.17,4a1,1,0,1,0-1-1A1,1,0,0,0,7.17,4Z" class="cls-4"/><path d="M11,4a1,1,0,1,0-1-1A1,1,0,0,0,11,4Z" class="cls-4"/><path d="M14.92,4a1,1,0,1,0-1-1A1,1,0,0,0,14.92,4Z" class="cls-4"/><path d="M45.82,23.09H20.68A3.86,3.86,0,0,0,18,24.2a3.94,3.94,0,0,0-.83,1.22,3.79,3.79,0,0,0-.29,1.45v17a3.79,3.79,0,0,0,.29,1.45A4.1,4.1,0,0,0,18,46.51a3.91,3.91,0,0,0,2.7,1.1H45.82a3.84,3.84,0,0,0,2.69-1.1,3.75,3.75,0,0,0,1.12-2.68v-17a3.75,3.75,0,0,0-1.12-2.67A3.81,3.81,0,0,0,45.82,23.09Z" class="cls-6"/><path d="M63.55,26.87v17a3.79,3.79,0,0,0,1.12,2.68,3.86,3.86,0,0,0,2.7,1.1H92.51a3.84,3.84,0,0,0,2.69-1.1,3.75,3.75,0,0,0,1.12-2.68v-17A3.73,3.73,0,0,0,95.2,24.2a3.81,3.81,0,0,0-2.69-1.11H67.37a3.83,3.83,0,0,0-2.7,1.11A3.77,3.77,0,0,0,63.55,26.87Z" class="cls-7"/><path d="M110.24,26.87v17a3.75,3.75,0,0,0,1.12,2.68,3.85,3.85,0,0,0,2.7,1.1H139.2a3.84,3.84,0,0,0,2.69-1.1A3.75,3.75,0,0,0,143,43.83v-17a3.73,3.73,0,0,0-1.12-2.67,3.81,3.81,0,0,0-2.69-1.11H114.06a3.81,3.81,0,0,0-2.7,1.11A3.73,3.73,0,0,0,110.24,26.87Z" class="cls-8"/><path d="M16.86,64.42v17A3.79,3.79,0,0,0,18,84.06a3.84,3.84,0,0,0,2.7,1.1H45.82a3.8,3.8,0,0,0,2.69-1.1,3.75,3.75,0,0,0,1.12-2.67v-17a3.75,3.75,0,0,0-1.12-2.67,3.81,3.81,0,0,0-2.69-1.11H20.68A3.85,3.85,0,0,0,18,61.75,3.79,3.79,0,0,0,16.86,64.42Z" class="cls-8"/><path d="M63.55,64.42v17a3.79,3.79,0,0,0,3.82,3.77H92.51a3.8,3.8,0,0,0,2.69-1.1,3.75,3.75,0,0,0,1.12-2.67v-17a3.75,3.75,0,0,0-1.12-2.67,3.81,3.81,0,0,0-2.69-1.11H67.37a3.83,3.83,0,0,0-2.7,1.11A3.79,3.79,0,0,0,63.55,64.42Z" class="cls-8"/><path d="M110.24,64.42v17a3.75,3.75,0,0,0,1.12,2.67,3.8,3.8,0,0,0,2.7,1.1H139.2a3.8,3.8,0,0,0,2.69-1.1A3.75,3.75,0,0,0,143,81.39v-17a3.75,3.75,0,0,0-1.12-2.67,3.81,3.81,0,0,0-2.69-1.11H114.06a3.81,3.81,0,0,0-2.7,1.11A3.75,3.75,0,0,0,110.24,64.42Z" class="cls-6"/><path d="M33.25,40.55A5.2,5.2,0,1,0,28,35.35,5.22,5.22,0,0,0,33.25,40.55Z" class="cls-4"/><path d="M41.26,48.09h-16a7.85,7.85,0,0,1,7-4.23h2a7.88,7.88,0,0,1,7,4.23Z" class="cls-4"/><path d="M79.94,40.55a5.2,5.2,0,1,0-5.24-5.2A5.22,5.22,0,0,0,79.94,40.55Z" class="cls-4"/><path d="M87.94,48.09h-16a7.6,7.6,0,0,1,1.43-2,7.83,7.83,0,0,1,2.55-1.69,7.91,7.91,0,0,1,3-.59h2A8,8,0,0,1,85.05,45,7.81,7.81,0,0,1,87.94,48.09Z" class="cls-4"/><path d="M126.63,40.55a5.2,5.2,0,1,0-5.24-5.2A5.22,5.22,0,0,0,126.63,40.55Z" class="cls-4"/><path d="M134.63,48.09h-16a7.6,7.6,0,0,1,1.43-2,7.83,7.83,0,0,1,2.55-1.69,7.91,7.91,0,0,1,3-.59h2a8,8,0,0,1,4.1,1.14A7.81,7.81,0,0,1,134.63,48.09Z" class="cls-4"/><path d="M33.25,78.1A5.2,5.2,0,1,0,28,72.9,5.22,5.22,0,0,0,33.25,78.1Z" class="cls-4"/><path d="M41.26,85.64h-16a7.92,7.92,0,0,1,4-3.64,7.91,7.91,0,0,1,3-.59h2a7.88,7.88,0,0,1,7,4.23Z" class="cls-4"/><path d="M79.94,78.1a5.2,5.2,0,1,0-5.24-5.2A5.22,5.22,0,0,0,79.94,78.1Z" class="cls-4"/><path d="M87.94,85.64h-16a7.55,7.55,0,0,1,1.43-1.94,7.82,7.82,0,0,1,5.56-2.29h2a8,8,0,0,1,4.09,1.14A7.81,7.81,0,0,1,87.94,85.64Z" class="cls-4"/><path d="M126.63,78.1a5.2,5.2,0,1,0-5.24-5.2A5.22,5.22,0,0,0,126.63,78.1Z" class="cls-4"/><path d="M134.63,85.64h-16a7.55,7.55,0,0,1,1.43-1.94,7.82,7.82,0,0,1,5.56-2.29h2a8,8,0,0,1,4.1,1.14A7.81,7.81,0,0,1,134.63,85.64Z" class="cls-4"/><path d="M191.76,144H129.59a.21.21,0,0,1-.17-.07.24.24,0,0,1-.07-.17.24.24,0,0,1,.07-.16.21.21,0,0,1,.17-.07h62.17a.22.22,0,0,1,.17.07.2.2,0,0,1,.07.16.21.21,0,0,1-.07.17A.22.22,0,0,1,191.76,144Z" class="cls-5"/><path d="M159.77,141.12h-2.92L155.46,130h4.31Z" class="cls-9"/><path d="M154.77,140.29h5.63v3.52h-9.18a3.5,3.5,0,0,1,.27-1.35,3.64,3.64,0,0,1,.77-1.14,3.72,3.72,0,0,1,1.15-.76A3.51,3.51,0,0,1,154.77,140.29Z" class="cls-10"/><path d="M170.73,141.12h-2.92L166.42,130h4.31Z" class="cls-9"/><path d="M165.72,140.29h5.64v3.52h-9.18a3.49,3.49,0,0,1,1-2.49,3.6,3.6,0,0,1,1.15-.76A3.5,3.5,0,0,1,165.72,140.29Z" class="cls-10"/><path d="M170.37,107.86a2.64,2.64,0,0,1-.78-.78,2.6,2.6,0,0,1-.37-1,2.51,2.51,0,0,1,.1-1.09,2.6,2.6,0,0,1,.56-1L168,76.94l5.54.53.15,26.5a2.55,2.55,0,0,1,.7,1.67,2.51,2.51,0,0,1-.6,1.72,2.54,2.54,0,0,1-1.59.88,2.57,2.57,0,0,1-1.79-.38Z" class="cls-9"/><path d="M159.63,135.49l-3.21-.15a1.09,1.09,0,0,1-.72-.32,1.06,1.06,0,0,1-.3-.73c-.85-13-2-26.88-.23-32.25a1.14,1.14,0,0,1,.1-.45,1.07,1.07,0,0,1,.27-.36,1,1,0,0,1,.4-.22,1.19,1.19,0,0,1,.46,0l12.86,1.85a1,1,0,0,1,.92,1c1.64,6.36,1.72,17.9,1.65,29.89a.89.89,0,0,1-.07.4,1.21,1.21,0,0,1-.24.35,1,1,0,0,1-.35.23,1,1,0,0,1-.41.09H167.3a1,1,0,0,1-.7-.26,1,1,0,0,1-.36-.64l-2.14-13.48a.8.8,0,0,0-.29-.5.81.81,0,0,0-1.09,0,.78.78,0,0,0-.27.51l-1.7,14.08a1,1,0,0,1-1.07.93Z" class="cls-10"/><path d="M161.9,103.87a16.17,16.17,0,0,0-6.12-2.07,1.11,1.11,0,0,1-.4-.13,1,1,0,0,1-.33-.27,1,1,0,0,1-.19-.38,1,1,0,0,1,0-.42l3.08-22.69a7.85,7.85,0,0,1,4.61-6.13,7.84,7.84,0,0,1,3.82-.67A7.7,7.7,0,0,1,170,72.36l.32.22a7.87,7.87,0,0,1,2.75,3.63,7.78,7.78,0,0,1,.25,4.53c-1.89,7.67-2.53,20.23-2.64,22.68a1,1,0,0,1-.21.57,1,1,0,0,1-.49.37,10.67,10.67,0,0,1-3.63.64A9.09,9.09,0,0,1,161.9,103.87Z" class="cls-5"/><path d="M169.21,86a1,1,0,0,1-.31-.35,1,1,0,0,1-.13-.45l-.41-7.29a2.89,2.89,0,0,1,.65-2,3,3,0,0,1,1.83-1A3,3,0,0,1,174.16,77L176,83.53a1.1,1.1,0,0,1-.11.81,1,1,0,0,1-.65.49l-5.07,1.37a1.07,1.07,0,0,1-.47,0A1,1,0,0,1,169.21,86Z" class="cls-5"/><path d="M164.48,68.7a5.8,5.8,0,1,0-5.86-5.8A5.82,5.82,0,0,0,164.48,68.7Z" class="cls-9"/><path d="M143.27,74.3a2.32,2.32,0,0,1,.06.38l10.23,5.86,2.49-1.42,2.65,3.44-5.32,3.76-11.67-9.13a2.51,2.51,0,0,1-2.76-.7,2.47,2.47,0,0,1,.75-3.83,2.52,2.52,0,0,1,2.82.37,2.43,2.43,0,0,1,.75,1.27Z" class="cls-9"/><path d="M153.93,80a1.07,1.07,0,0,1,0-.47,1.11,1.11,0,0,1,.26-.39L159.45,74a3,3,0,0,1,3.94-.2,2.91,2.91,0,0,1,.62,3.87l-3.71,5.66a1,1,0,0,1-.67.46,1.09,1.09,0,0,1-.81-.14l-4.41-2.84a1.15,1.15,0,0,1-.33-.33A1.2,1.2,0,0,1,153.93,80Z" class="cls-5"/><path d="M168.62,67.49a1.9,1.9,0,0,1-3.27-1,1.54,1.54,0,0,1,0-.37,8.42,8.42,0,0,0,.38-2.06,1,1,0,0,0-.2-.51c-.87-1.16-2.91.51-3.73-.53-.51-.64.09-1.65-.3-2.37-.51-.94-2-.48-3-1s-1-2.18-.29-3.16A5,5,0,0,1,162,54.55a10.21,10.21,0,0,1,4.28.83,8.6,8.6,0,0,1,4.06,2.78,6.77,6.77,0,0,1,.69,5.79A11,11,0,0,1,168.62,67.49Z" class="cls-10"/></g></g></g></svg>